<svg data-v-fde0c5aa="" xmlns="http://www.w3.org/2000/svg" viewBox="0 0 300 300" class="iconLeftSlogan"><!----><defs data-v-fde0c5aa=""><!----></defs><rect data-v-fde0c5aa="" fill="#E4F3EB" x="0" y="0" width="300px" height="300px" class="logo-background-square"></rect><defs data-v-fde0c5aa=""><!----></defs><g data-v-fde0c5aa="" id="109e4e83-2e6a-4946-831d-33586fe70f06" fill="#0D3721" transform="matrix(3.19359373517872,0,0,3.19359373517872,112.10466926225736,109.26166182172899)"><path d="M2.60 13.43L2.60 10.30C3.15 10.28 3.64 10.21 4.10 10.09L6.05 13.43L7.46 13.43L5.24 9.66C6.38 9.07 7.03 8.06 7.03 6.75C7.03 5.11 5.87 3.63 2.11 3.63L0.41 3.63L0.41 4.66L1.36 4.66L1.36 13.43ZM5.68 6.79C5.68 8.18 4.65 9.16 2.60 9.28L2.60 4.68C5.07 4.79 5.68 5.73 5.68 6.79ZM11.26 6.61C9.31 6.61 8.15 7.74 8.15 9.95C8.15 12.33 9.56 13.57 11.80 13.57C12.56 13.57 13.38 13.44 14.01 13.19L14.01 12.15C13.23 12.40 12.36 12.52 11.77 12.52C10.36 12.52 9.53 11.84 9.38 10.40L14.13 10.40L14.13 9.83C14.13 7.71 13.09 6.61 11.26 6.61ZM11.24 7.56C12.33 7.56 12.88 8.40 12.88 9.53L9.37 9.53C9.48 8.18 10.21 7.56 11.24 7.56ZM19.84 6.68C19.50 6.64 19.14 6.61 18.72 6.61C16.28 6.61 15.22 7.91 15.22 9.79C15.22 12.25 17.09 13.50 19.46 13.50C19.71 13.50 19.85 13.48 20.10 13.47L20.10 12.46C19.88 12.49 19.68 12.50 19.47 12.50C17.60 12.50 16.51 11.34 16.51 9.74C16.51 8.44 17.22 7.62 18.87 7.62C19.21 7.62 19.49 7.63 19.84 7.69ZM21.34 3.72L21.34 5.10L22.61 5.10L22.61 3.72ZM21.34 6.75L21.34 11.56C21.34 12.85 21.81 13.47 23.16 13.47C23.31 13.47 23.45 13.45 23.60 13.44L23.60 12.43C23.46 12.46 23.37 12.46 23.24 12.46C22.76 12.46 22.61 12.14 22.61 11.54L22.61 6.75ZM26.03 16.37L26.03 13.45C26.50 13.52 26.98 13.57 27.38 13.57C29.65 13.57 30.87 12.24 30.87 9.76C30.87 7.48 29.79 6.61 28.35 6.61C27.26 6.61 26.47 7.11 26.00 8.30L25.97 6.75L24.75 6.75L24.75 16.37ZM28.07 7.66C28.99 7.66 29.60 8.25 29.60 9.83C29.60 11.68 28.78 12.59 27.34 12.59C26.94 12.59 26.50 12.54 26.04 12.45C26.07 8.37 27.10 7.66 28.07 7.66ZM32.34 3.72L32.34 5.10L33.61 5.10L33.61 3.72ZM32.34 6.75L32.34 11.56C32.34 12.85 32.82 13.47 34.16 13.47C34.31 13.47 34.45 13.45 34.61 13.44L34.61 12.43C34.47 12.46 34.37 12.46 34.24 12.46C33.77 12.46 33.61 12.14 33.61 11.54L33.61 6.75ZM39.68 2.88C39.44 2.81 39.14 2.79 38.74 2.79C37.18 2.79 36.25 3.91 36.25 5.99L36.25 6.75L35.01 6.75L35.01 7.71L36.25 7.71L36.25 13.43L37.51 13.43L37.51 7.71L39.42 7.71L39.42 6.75L37.51 6.75L37.51 6.02C37.51 4.45 38.04 3.79 38.96 3.79C39.24 3.79 39.44 3.82 39.68 3.88ZM42.46 15.46C41.72 15.46 40.95 15.37 40.39 15.20L40.39 16.20C40.94 16.37 41.78 16.46 42.50 16.46C44.93 16.46 46.31 15.41 46.31 12.64L46.31 7.42L46.30 7.42L46.30 6.75L45.01 6.75L45.01 8.57C44.91 10.35 44.38 12.50 42.84 12.50C42.10 12.50 41.73 12.08 41.73 11.02L41.73 6.75L40.47 6.75L40.47 11.27C40.47 12.71 41.03 13.55 42.49 13.55C43.78 13.55 44.58 12.94 45.04 11.84L45.04 12.63C45.04 14.80 44.03 15.46 42.46 15.46Z"></path></g><defs data-v-fde0c5aa=""><linearGradient data-v-fde0c5aa="" gradientTransform="rotate(25)" id="be8b83f7-eba8-4b6c-b61e-4a61f0e7d3bf" x1="0%" y1="0%" x2="100%" y2="0%"><stop data-v-fde0c5aa="" offset="0%" stop-color="#085B20" stop-opacity="1"></stop><stop data-v-fde0c5aa="" offset="100%" stop-color="#41E296" stop-opacity="1"></stop></linearGradient></defs><g data-v-fde0c5aa="" id="b6717587-05bd-4191-9780-921b56eb6e89" stroke="none" fill="url(#be8b83f7-eba8-4b6c-b61e-4a61f0e7d3bf)" transform="matrix(0.7982195527510074,0,0,0.7982195527510074,29.6367157049719,110.16365447776765)"><g clip-rule="evenodd"><path d="M12.983 10.59l17.018 88.223-5.872-59.049 29.021-1.892-.054-9.883L64.549 1 53.622 18.977z"></path><path d="M59.389 54.548l5.16-53.541-8.74 39.716-19.612 1.045 1.57 20.462-7.766 36.583 12.057-39.899z"></path><path d="M62.8 67.182l.549-10.453-15.979 3.755-.032 11.797-17.337 26.532 21.68-27.616zM65.711 62.394l14.841-4.731 1.509-12.532-15.899 2.095zM72.07 44.502l10.988-1.417 1.581-10.278-8.079-.373L64.549 1l8.43 30.967z"></path><path d="M87.413 31.294l1.256-9.506-9.544-2.694L64.549 1l14.483 22.437-.422 7z"></path></g></g><defs data-v-fde0c5aa=""><!----></defs><g data-v-fde0c5aa="" id="dfed1503-fc67-47f1-a61d-d1e79fb48543" fill="#0D3721" transform="matrix(0.2021066907837712,0,0,0.2021066907837712,112.97345008285875,170.99957436600926)"><path d="M2.35 14.45L2.35 14.45Q2.56 13.99 2.86 13.26Q3.15 12.53 3.47 11.68Q3.79 10.84 4.13 9.95Q4.47 9.06 4.76 8.26Q5.05 7.46 5.27 6.83Q5.49 6.20 5.59 5.87L5.59 5.87Q4.70 6.23 4.07 6.97Q3.44 7.71 3.12 8.83L3.12 8.83Q2.80 8.72 2.53 8.43Q2.27 8.15 2.18 7.71L2.18 7.71Q2.32 7.07 2.71 6.54Q3.09 6.01 3.68 5.63Q4.27 5.25 5.04 5.05Q5.81 4.84 6.69 4.84L6.69 4.84Q7.81 4.84 8.75 5.17Q9.69 5.50 10.36 6.09Q11.03 6.68 11.41 7.50Q11.79 8.33 11.79 9.34L11.79 9.34Q11.79 10.71 11.28 11.96Q10.78 13.20 9.92 14.15Q9.06 15.11 7.92 15.67Q6.79 16.24 5.54 16.24L5.54 16.24Q4.40 16.24 3.58 15.79Q2.76 15.33 2.35 14.45ZM7.29 5.54L7.29 5.54Q6.59 5.54 5.96 5.74L5.96 5.74Q6.58 5.96 6.99 6.21Q7.39 6.45 7.55 6.59L7.55 6.59Q7.43 6.75 7.22 7.14Q7 7.53 6.71 8.09Q6.43 8.65 6.10 9.32Q5.78 9.98 5.47 10.68L5.47 10.68Q4.68 12.46 4.32 13.48Q3.96 14.50 3.96 14.90L3.96 14.90Q4.16 14.97 4.44 14.99Q4.72 15.02 5.04 15.02L5.04 15.02Q6.17 15.02 7.19 14.50Q8.20 13.97 8.97 13.09Q9.73 12.21 10.17 11.04Q10.61 9.87 10.61 8.58L10.61 8.58Q10.61 7.14 9.72 6.34Q8.82 5.54 7.29 5.54ZM19.73 14.38L19.73 14.38Q19.73 13.87 19.89 13.07Q20.05 12.26 20.31 11.33Q20.57 10.40 20.90 9.43Q21.24 8.46 21.59 7.60Q21.94 6.75 22.27 6.10Q22.61 5.46 22.88 5.18L22.88 5.18Q23.02 5.19 23.25 5.29Q23.48 5.38 23.72 5.50Q23.95 5.63 24.15 5.78Q24.35 5.92 24.40 6.05L24.40 6.05Q24.00 6.41 23.60 7.15Q23.20 7.88 22.83 8.82Q22.46 9.76 22.13 10.80Q21.81 11.84 21.57 12.82Q21.34 13.80 21.20 14.64Q21.07 15.48 21.07 16.00L21.07 16.00Q21.07 16.24 21.11 16.30L21.11 16.30Q20.80 16.28 20.66 16.19Q20.52 16.10 20.45 16.00Q20.37 15.89 20.31 15.79Q20.24 15.68 20.12 15.62L20.12 15.62Q20.02 15.58 19.95 15.43Q19.88 15.27 19.83 15.09Q19.78 14.90 19.75 14.70Q19.73 14.50 19.73 14.38ZM39.84 5.74L39.84 5.74Q39.89 5.98 39.91 6.07Q39.93 6.16 39.93 6.31L39.93 6.31Q39.93 6.78 39.73 7.18Q39.52 7.57 39.17 7.74L39.17 7.74Q38.89 7.36 38.49 7.09Q38.08 6.82 37.60 6.64Q37.11 6.47 36.60 6.38Q36.08 6.30 35.59 6.30L35.59 6.30Q35.10 6.30 34.67 6.38Q34.24 6.45 33.91 6.59Q33.59 6.72 33.40 6.92Q33.21 7.11 33.21 7.36L33.21 7.36Q33.25 7.67 33.59 7.99Q33.92 8.30 34.41 8.60Q34.90 8.90 35.50 9.20Q36.09 9.49 36.67 9.76L36.67 9.76Q37.38 10.09 37.90 10.38Q38.42 10.67 38.75 11.01Q39.09 11.35 39.26 11.79Q39.42 12.22 39.42 12.84L39.42 12.84Q39.42 13.55 39.19 14.18Q38.95 14.80 38.49 15.26Q38.04 15.72 37.39 15.98Q36.75 16.24 35.95 16.24L35.95 16.24Q35.17 16.24 34.26 16.00Q33.35 15.76 32.56 15.35Q31.77 14.94 31.24 14.40Q30.72 13.86 30.72 13.26L30.72 13.26Q30.72 12.98 30.88 12.54Q31.04 12.11 31.46 11.63L31.46 11.63Q31.50 12.05 31.91 12.63Q32.33 13.20 33.15 13.69L33.15 13.69Q33.92 14.14 34.74 14.34Q35.56 14.55 36.27 14.55L36.27 14.55Q37.06 14.55 37.55 14.35Q38.04 14.15 38.32 13.88Q38.60 13.61 38.71 13.33Q38.82 13.05 38.84 12.88L38.84 12.88Q38.82 12.60 38.58 12.34Q38.33 12.08 37.92 11.84Q37.51 11.59 36.96 11.34Q36.41 11.09 35.83 10.84L35.83 10.84Q34.94 10.44 34.31 10.10Q33.67 9.76 33.26 9.40Q32.84 9.04 32.66 8.65Q32.47 8.26 32.47 7.76L32.47 7.76Q32.47 6.97 32.94 6.27Q33.42 5.57 34.31 5.21L34.31 5.21Q34.76 5.01 35.27 4.93Q35.78 4.84 36.27 4.84L36.27 4.84Q37.20 4.84 38.08 5.10Q38.96 5.35 39.84 5.74ZM48.05 12.43L48.05 12.43Q48.05 11.45 48.28 10.51Q48.51 9.56 48.93 8.71Q49.35 7.87 49.93 7.16Q50.51 6.45 51.20 5.94Q51.90 5.42 52.68 5.13Q53.47 4.84 54.29 4.84L54.29 4.84Q55.26 4.84 55.80 5.25Q56.34 5.66 56.34 6.38L56.34 6.38Q56.34 6.66 56.26 6.96Q56.18 7.25 56.03 7.54Q55.89 7.83 55.69 8.09Q55.50 8.36 55.26 8.55L55.26 8.55Q54.89 8.50 54.63 8.22Q54.36 7.95 54.29 7.59L54.29 7.59Q54.78 7.18 55.07 6.74Q55.36 6.30 55.36 5.94L55.36 5.94Q55.36 5.32 54.59 5.32L54.59 5.32Q54.26 5.32 53.92 5.45Q53.58 5.59 53.23 5.82Q52.88 6.06 52.55 6.40Q52.22 6.73 51.94 7.14L51.94 7.14Q49.99 9.94 49.99 12.87L49.99 12.87Q49.99 13.90 50.32 14.53Q50.64 15.16 51.17 15.27L51.17 15.27Q51.77 15.13 52.70 14.50Q53.62 13.87 54.71 12.87L54.71 12.87Q54.85 13.01 54.88 13.16L54.88 13.16Q54.47 13.69 54.04 14.18Q53.61 14.67 53.18 15.08Q52.75 15.48 52.34 15.79Q51.93 16.10 51.58 16.27L51.58 16.27Q49.84 16.24 48.94 15.27Q48.05 14.31 48.05 12.43ZM69.38 4.98L69.38 4.98Q69.65 5.10 69.93 5.27Q70.21 5.45 70.45 5.63Q70.69 5.81 70.85 5.98Q71.01 6.16 71.02 6.27L71.02 6.27Q70.78 6.22 70.55 6.20Q70.31 6.17 70.11 6.17L70.11 6.17Q69.48 6.17 68.86 6.48Q68.24 6.79 67.68 7.32Q67.12 7.85 66.64 8.57Q66.16 9.28 65.82 10.09Q65.48 10.91 65.28 11.77Q65.09 12.64 65.09 13.48L65.09 13.48Q65.09 14.57 65.45 15.11Q65.81 15.64 66.51 15.64L66.51 15.64Q66.85 15.64 67.24 15.51Q67.63 15.37 68.04 15.13Q68.45 14.90 68.84 14.56Q69.23 14.22 69.57 13.82L69.57 13.82Q70.06 13.23 70.45 12.48Q70.84 11.73 71.11 10.89Q71.39 10.05 71.53 9.16Q71.68 8.27 71.68 7.42L71.68 7.42Q71.68 7.08 71.67 6.85Q71.65 6.62 71.63 6.46Q71.61 6.30 71.60 6.20Q71.58 6.10 71.57 6.03L71.57 6.03Q71.74 6.12 71.94 6.24Q72.14 6.36 72.32 6.59Q72.49 6.82 72.61 7.20Q72.73 7.57 72.73 8.18L72.73 8.18Q72.73 9.16 72.50 10.10Q72.27 11.05 71.85 11.90Q71.44 12.75 70.88 13.50Q70.32 14.24 69.68 14.80L69.68 14.80Q68.84 15.54 67.89 15.95Q66.93 16.35 66.05 16.35L66.05 16.35Q64.76 16.35 64.08 15.53Q63.41 14.71 63.41 13.12L63.41 13.12Q63.41 12.26 63.59 11.31Q63.78 10.36 64.13 9.44Q64.47 8.51 64.95 7.68Q65.42 6.85 65.99 6.21Q66.56 5.57 67.21 5.19Q67.86 4.82 68.54 4.82L68.54 4.82Q68.77 4.82 68.96 4.85Q69.16 4.89 69.38 4.98ZM84.29 16.07L84.29 16.07Q83.97 16.24 83.61 16.24L83.61 16.24Q83.16 16.18 82.75 16.02Q82.33 15.85 82.14 15.61L82.14 15.61Q82.03 14.92 81.96 14.35Q81.89 13.78 81.84 13.27Q81.80 12.75 81.79 12.29Q81.77 11.82 81.77 11.34L81.77 11.34Q81.77 10.71 81.79 10.01Q81.80 9.31 81.82 8.52Q81.84 7.73 81.86 6.82Q81.87 5.92 81.87 4.86L81.87 4.86Q82.05 4.86 82.42 4.96Q82.78 5.07 83.14 5.21Q83.50 5.35 83.78 5.49Q84.06 5.64 84.08 5.74L84.08 5.74Q83.94 6.13 83.84 6.76Q83.73 7.39 83.67 8.16Q83.61 8.93 83.58 9.79Q83.55 10.64 83.55 11.48L83.55 11.48Q83.55 12.11 83.57 12.61Q83.58 13.10 83.60 13.50Q83.62 13.90 83.66 14.25Q83.71 14.59 83.76 14.92L83.76 14.92Q84.15 13.73 84.62 12.54Q85.09 11.35 85.59 10.25Q86.09 9.16 86.58 8.20Q87.07 7.25 87.51 6.54Q87.95 5.84 88.30 5.43Q88.65 5.01 88.87 4.98L88.87 4.98Q89.03 5.01 89.20 5.10Q89.38 5.19 89.53 5.32Q89.68 5.45 89.81 5.60Q89.94 5.75 90.01 5.91L90.01 5.91Q89.49 6.09 88.89 6.76Q88.30 7.43 87.70 8.38Q87.09 9.32 86.53 10.44Q85.96 11.55 85.50 12.61Q85.05 13.68 84.73 14.60Q84.41 15.53 84.29 16.07ZM101.26 9.21L101.26 9.21Q101.72 9.21 101.98 9.46Q102.24 9.72 102.24 10.16L102.24 10.16Q102.24 10.28 102.22 10.39Q102.20 10.51 102.17 10.60L102.17 10.60Q101.99 10.57 101.77 10.55Q101.54 10.53 101.23 10.53L101.23 10.53Q100.63 10.53 100.02 10.63Q99.40 10.74 98.84 10.81L98.84 10.81Q98.52 11.55 98.25 12.24Q97.99 12.94 97.80 13.51Q97.61 14.08 97.50 14.50Q97.40 14.92 97.38 15.13L97.38 15.13Q98.52 14.90 99.67 14.73Q100.83 14.56 102.10 14.48L102.10 14.48Q102.26 14.71 102.36 14.99Q102.47 15.27 102.47 15.60L102.47 15.60Q102.47 15.68 102.47 15.78Q102.47 15.88 102.44 15.97L102.44 15.97Q102.05 15.96 101.61 15.95Q101.18 15.95 100.48 15.95L100.48 15.95Q100.02 15.95 99.60 15.97Q99.19 15.99 98.77 16.03Q98.35 16.07 97.88 16.14Q97.41 16.21 96.82 16.31L96.82 16.31Q96.18 16.06 95.58 15.08L95.58 15.08Q95.82 14.57 96.24 13.54Q96.67 12.52 97.33 10.79L97.33 10.79Q96.70 10.60 96.50 10.09L96.50 10.09Q96.57 10.02 96.91 9.92Q97.24 9.81 97.73 9.70L97.73 9.70Q97.94 9.16 98.09 8.75Q98.24 8.34 98.35 7.99Q98.46 7.63 98.55 7.29Q98.64 6.94 98.73 6.54L98.73 6.54Q98.24 6.51 97.96 6.27Q97.68 6.02 97.68 5.63L97.68 5.63Q97.68 5.52 97.71 5.36Q97.75 5.21 97.79 5.10L97.79 5.10Q98.07 5.14 98.33 5.15Q98.59 5.17 99.01 5.17L99.01 5.17Q99.89 5.17 100.66 5.12Q101.43 5.07 102.05 5.01Q102.68 4.96 103.12 4.91Q103.57 4.86 103.81 4.86L103.81 4.86Q104.13 4.86 104.38 5.19Q104.64 5.53 104.76 6.15L104.76 6.15Q104.33 6.10 104.06 6.09Q103.78 6.08 103.57 6.08L103.57 6.08Q102.80 6.08 102.17 6.15Q101.53 6.23 100.94 6.31L100.94 6.31Q100.86 6.44 100.75 6.64Q100.65 6.83 100.48 7.18Q100.31 7.53 100.06 8.06Q99.82 8.60 99.47 9.39L99.47 9.39Q100.00 9.31 100.47 9.26Q100.94 9.21 101.26 9.21ZM120.53 7.46L120.53 7.46Q120.53 8.13 120.22 8.73Q119.92 9.32 119.39 9.79Q118.86 10.26 118.15 10.58Q117.43 10.91 116.59 11.02L116.59 11.02Q116.80 11.65 117.10 12.31Q117.40 12.98 117.75 13.59Q118.10 14.21 118.48 14.73Q118.86 15.25 119.22 15.58L119.22 15.58Q119.15 15.72 119.02 15.86Q118.89 16.00 118.71 16.12Q118.54 16.24 118.35 16.32Q118.16 16.39 117.99 16.39L117.99 16.39Q117.68 16.39 117.40 16.10Q117.12 15.81 116.84 15.17Q116.55 14.53 116.23 13.52Q115.92 12.50 115.54 11.07L115.54 11.07Q115.39 11.07 115.23 11.07Q115.08 11.07 115.00 11.05L115.00 11.05Q114.90 10.99 114.79 10.85L114.79 10.85Q114.41 11.66 114.11 12.38Q113.82 13.09 113.59 13.76Q113.36 14.42 113.18 15.04Q113.01 15.67 112.88 16.31L112.88 16.31Q112.41 16.20 112.06 15.90Q111.71 15.61 111.40 15.08L111.40 15.08Q111.45 14.95 111.52 14.83Q111.58 14.71 111.68 14.50Q111.78 14.28 111.92 13.94Q112.07 13.61 112.31 13.05Q112.56 12.49 112.90 11.68Q113.25 10.86 113.74 9.70L113.74 9.70Q113.96 9.18 114.12 8.79Q114.28 8.40 114.41 8.04Q114.53 7.69 114.64 7.33Q114.74 6.97 114.86 6.51L114.86 6.51Q114.21 6.73 113.66 7.01Q113.11 7.28 112.74 7.59L112.74 7.59Q112.62 7.50 112.48 7.34Q112.35 7.17 112.24 6.96Q112.13 6.76 112.04 6.55Q111.96 6.34 111.94 6.17L111.94 6.17Q112.36 5.89 112.97 5.66Q113.58 5.42 114.27 5.24Q114.95 5.07 115.67 4.97Q116.38 4.87 117.00 4.87L117.00 4.87Q118.68 4.87 119.60 5.56Q120.53 6.26 120.53 7.46ZM116.94 6.02L117.11 6.29Q117.01 6.41 116.80 6.79Q116.59 7.17 116.32 7.69Q116.05 8.22 115.75 8.83Q115.44 9.45 115.16 10.05L115.16 10.05Q116.21 10.05 117.10 9.86Q117.98 9.66 118.62 9.30Q119.27 8.95 119.62 8.46Q119.98 7.98 119.98 7.39L119.98 7.39Q119.98 6.69 119.48 6.32Q118.97 5.95 117.92 5.95L117.92 5.95Q117.68 5.95 117.45 5.97Q117.21 5.99 116.94 6.02L116.94 6.02ZM138.95 14.45L138.95 14.45Q139.16 13.99 139.45 13.26Q139.75 12.53 140.07 11.68Q140.39 10.84 140.73 9.95Q141.06 9.06 141.36 8.26Q141.65 7.46 141.87 6.83Q142.09 6.20 142.18 5.87L142.18 5.87Q141.30 6.23 140.67 6.97Q140.04 7.71 139.72 8.83L139.72 8.83Q139.40 8.72 139.13 8.43Q138.87 8.15 138.78 7.71L138.78 7.71Q138.92 7.07 139.31 6.54Q139.69 6.01 140.28 5.63Q140.87 5.25 141.64 5.05Q142.41 4.84 143.29 4.84L143.29 4.84Q144.41 4.84 145.35 5.17Q146.29 5.50 146.96 6.09Q147.63 6.68 148.01 7.50Q148.39 8.33 148.39 9.34L148.39 9.34Q148.39 10.71 147.88 11.96Q147.38 13.20 146.52 14.15Q145.66 15.11 144.52 15.67Q143.39 16.24 142.14 16.24L142.14 16.24Q140.99 16.24 140.17 15.79Q139.36 15.33 138.95 14.45ZM143.89 5.54L143.89 5.54Q143.19 5.54 142.56 5.74L142.56 5.74Q143.18 5.96 143.58 6.21Q143.99 6.45 144.14 6.59L144.14 6.59Q144.03 6.75 143.81 7.14Q143.60 7.53 143.31 8.09Q143.02 8.65 142.70 9.32Q142.38 9.98 142.07 10.68L142.07 10.68Q141.27 12.46 140.92 13.48Q140.56 14.50 140.56 14.90L140.56 14.90Q140.76 14.97 141.04 14.99Q141.32 15.02 141.64 15.02L141.64 15.02Q142.77 15.02 143.79 14.50Q144.80 13.97 145.56 13.09Q146.33 12.21 146.77 11.04Q147.21 9.87 147.21 8.58L147.21 8.58Q147.21 7.14 146.31 6.34Q145.42 5.54 143.89 5.54ZM161.69 9.21L161.69 9.21Q162.15 9.21 162.41 9.46Q162.67 9.72 162.67 10.16L162.67 10.16Q162.67 10.28 162.64 10.39Q162.62 10.51 162.60 10.60L162.60 10.60Q162.41 10.57 162.19 10.55Q161.97 10.53 161.66 10.53L161.66 10.53Q161.06 10.53 160.44 10.63Q159.82 10.74 159.26 10.81L159.26 10.81Q158.94 11.55 158.68 12.24Q158.41 12.94 158.22 13.51Q158.03 14.08 157.93 14.50Q157.82 14.92 157.81 15.13L157.81 15.13Q158.94 14.90 160.10 14.73Q161.25 14.56 162.53 14.48L162.53 14.48Q162.68 14.71 162.78 14.99Q162.89 15.27 162.89 15.60L162.89 15.60Q162.89 15.68 162.89 15.78Q162.89 15.88 162.86 15.97L162.86 15.97Q162.47 15.96 162.04 15.95Q161.60 15.95 160.90 15.95L160.90 15.95Q160.44 15.95 160.03 15.97Q159.61 15.99 159.19 16.03Q158.77 16.07 158.30 16.14Q157.84 16.21 157.25 16.31L157.25 16.31Q156.60 16.06 156.00 15.08L156.00 15.08Q156.24 14.57 156.67 13.54Q157.09 12.52 157.75 10.79L157.75 10.79Q157.12 10.60 156.93 10.09L156.93 10.09Q157.00 10.02 157.33 9.92Q157.67 9.81 158.16 9.70L158.16 9.70Q158.37 9.16 158.51 8.75Q158.66 8.34 158.77 7.99Q158.89 7.63 158.98 7.29Q159.07 6.94 159.15 6.54L159.15 6.54Q158.66 6.51 158.38 6.27Q158.10 6.02 158.10 5.63L158.10 5.63Q158.10 5.52 158.14 5.36Q158.17 5.21 158.21 5.10L158.21 5.10Q158.49 5.14 158.75 5.15Q159.01 5.17 159.43 5.17L159.43 5.17Q160.31 5.17 161.08 5.12Q161.85 5.07 162.48 5.01Q163.10 4.96 163.55 4.91Q164.00 4.86 164.23 4.86L164.23 4.86Q164.56 4.86 164.81 5.19Q165.06 5.53 165.19 6.15L165.19 6.15Q164.75 6.10 164.48 6.09Q164.21 6.08 164.00 6.08L164.00 6.08Q163.23 6.08 162.59 6.15Q161.95 6.23 161.36 6.31L161.36 6.31Q161.28 6.44 161.17 6.64Q161.07 6.83 160.90 7.18Q160.73 7.53 160.49 8.06Q160.24 8.60 159.89 9.39L159.89 9.39Q160.43 9.31 160.89 9.26Q161.36 9.21 161.69 9.21ZM176.64 14.38L176.64 14.38Q176.99 14.98 176.99 15.54L176.99 15.54Q176.99 15.67 176.97 15.77Q176.95 15.88 176.92 15.99L176.92 15.99Q176.68 15.96 176.42 15.95Q176.16 15.93 175.88 15.93L175.88 15.93Q175.55 15.93 175.20 15.95Q174.86 15.97 174.44 16.02Q174.02 16.06 173.50 16.13Q172.98 16.20 172.30 16.31L172.30 16.31Q171.98 16.20 171.65 15.87Q171.33 15.54 171.05 15.08L171.05 15.08Q171.19 14.77 171.40 14.31Q171.61 13.86 171.89 13.21Q172.17 12.56 172.51 11.68Q172.86 10.81 173.25 9.66L173.25 9.66Q173.50 8.90 173.68 8.33Q173.87 7.76 174.01 7.22Q174.16 6.68 174.30 6.09Q174.44 5.50 174.61 4.73L174.61 4.73Q175.17 4.84 175.58 5.14Q175.99 5.45 176.37 6.01L176.37 6.01Q176.26 6.19 176.08 6.59Q175.90 7 175.65 7.58Q175.41 8.16 175.11 8.90Q174.82 9.63 174.50 10.47L174.50 10.47Q174.19 11.30 173.89 12.03Q173.60 12.75 173.37 13.34Q173.14 13.93 173.00 14.35Q172.86 14.77 172.86 14.98L172.86 14.98Q173.08 14.97 173.26 14.95Q173.45 14.94 173.64 14.90Q173.84 14.87 174.07 14.82Q174.30 14.77 174.62 14.69L174.62 14.69Q174.90 14.62 175.14 14.57Q175.38 14.52 175.61 14.48Q175.84 14.45 176.08 14.43Q176.33 14.41 176.64 14.38ZM185.60 14.38L185.60 14.38Q185.60 13.87 185.76 13.07Q185.92 12.26 186.18 11.33Q186.44 10.40 186.77 9.43Q187.11 8.46 187.46 7.60Q187.81 6.75 188.15 6.10Q188.48 5.46 188.75 5.18L188.75 5.18Q188.89 5.19 189.12 5.29Q189.35 5.38 189.59 5.50Q189.83 5.63 190.02 5.78Q190.22 5.92 190.27 6.05L190.27 6.05Q189.87 6.41 189.47 7.15Q189.07 7.88 188.70 8.82Q188.33 9.76 188.01 10.80Q187.68 11.84 187.45 12.82Q187.21 13.80 187.07 14.64Q186.94 15.48 186.94 16.00L186.94 16.00Q186.94 16.24 186.98 16.30L186.98 16.30Q186.68 16.28 186.54 16.19Q186.40 16.10 186.32 16.00Q186.24 15.89 186.18 15.79Q186.12 15.68 185.99 15.62L185.99 15.62Q185.89 15.58 185.82 15.43Q185.75 15.27 185.70 15.09Q185.65 14.90 185.63 14.70Q185.60 14.50 185.60 14.38ZM197.16 12.43L197.16 12.43Q197.16 11.45 197.39 10.51Q197.62 9.56 198.04 8.71Q198.46 7.87 199.04 7.16Q199.63 6.45 200.32 5.94Q201.01 5.42 201.80 5.13Q202.58 4.84 203.41 4.84L203.41 4.84Q204.37 4.84 204.91 5.25Q205.45 5.66 205.45 6.38L205.45 6.38Q205.45 6.66 205.37 6.96Q205.30 7.25 205.15 7.54Q205.00 7.83 204.81 8.09Q204.61 8.36 204.37 8.55L204.37 8.55Q204.01 8.50 203.74 8.22Q203.48 7.95 203.41 7.59L203.41 7.59Q203.90 7.18 204.18 6.74Q204.47 6.30 204.47 5.94L204.47 5.94Q204.47 5.32 203.70 5.32L203.70 5.32Q203.38 5.32 203.03 5.45Q202.69 5.59 202.34 5.82Q201.99 6.06 201.66 6.40Q201.33 6.73 201.05 7.14L201.05 7.14Q199.11 9.94 199.11 12.87L199.11 12.87Q199.11 13.90 199.43 14.53Q199.75 15.16 200.28 15.27L200.28 15.27Q200.89 15.13 201.81 14.50Q202.73 13.87 203.83 12.87L203.83 12.87Q203.97 13.01 203.99 13.16L203.99 13.16Q203.59 13.69 203.15 14.18Q202.72 14.67 202.29 15.08Q201.87 15.48 201.45 15.79Q201.04 16.10 200.69 16.27L200.69 16.27Q198.95 16.24 198.06 15.27Q197.16 14.31 197.16 12.43ZM212.46 14.38L212.46 14.38Q212.46 13.87 212.62 13.07Q212.79 12.26 213.04 11.33Q213.30 10.40 213.64 9.43Q213.98 8.46 214.33 7.60Q214.68 6.75 215.01 6.10Q215.35 5.46 215.61 5.18L215.61 5.18Q215.75 5.19 215.98 5.29Q216.22 5.38 216.45 5.50Q216.69 5.63 216.89 5.78Q217.08 5.92 217.14 6.05L217.14 6.05Q216.73 6.41 216.33 7.15Q215.94 7.88 215.56 8.82Q215.19 9.76 214.87 10.80Q214.55 11.84 214.31 12.82Q214.07 13.80 213.94 14.64Q213.81 15.48 213.81 16.00L213.81 16.00Q213.81 16.24 213.85 16.30L213.85 16.30Q213.54 16.28 213.40 16.19Q213.26 16.10 213.18 16.00Q213.11 15.89 213.04 15.79Q212.98 15.68 212.86 15.62L212.86 15.62Q212.76 15.58 212.69 15.43Q212.62 15.27 212.57 15.09Q212.52 14.90 212.49 14.70Q212.46 14.50 212.46 14.38ZM229.91 4.98L229.91 4.98Q230.17 5.10 230.45 5.27Q230.73 5.45 230.97 5.63Q231.21 5.81 231.37 5.98Q231.53 6.16 231.55 6.27L231.55 6.27Q231.31 6.22 231.07 6.20Q230.83 6.17 230.64 6.17L230.64 6.17Q230.01 6.17 229.38 6.48Q228.76 6.79 228.20 7.32Q227.64 7.85 227.16 8.57Q226.69 9.28 226.34 10.09Q226.00 10.91 225.81 11.77Q225.61 12.64 225.61 13.48L225.61 13.48Q225.61 14.57 225.97 15.11Q226.34 15.64 227.04 15.64L227.04 15.64Q227.37 15.64 227.77 15.51Q228.16 15.37 228.56 15.13Q228.97 14.90 229.36 14.56Q229.75 14.22 230.09 13.82L230.09 13.82Q230.58 13.23 230.97 12.48Q231.36 11.73 231.64 10.89Q231.91 10.05 232.06 9.16Q232.20 8.27 232.20 7.42L232.20 7.42Q232.20 7.08 232.19 6.85Q232.18 6.62 232.15 6.46Q232.13 6.30 232.12 6.20Q232.11 6.10 232.09 6.03L232.09 6.03Q232.26 6.12 232.46 6.24Q232.67 6.36 232.84 6.59Q233.02 6.82 233.13 7.20Q233.25 7.57 233.25 8.18L233.25 8.18Q233.25 9.16 233.02 10.10Q232.79 11.05 232.38 11.90Q231.97 12.75 231.41 13.50Q230.85 14.24 230.20 14.80L230.20 14.80Q229.36 15.54 228.41 15.95Q227.46 16.35 226.58 16.35L226.58 16.35Q225.29 16.35 224.61 15.53Q223.93 14.71 223.93 13.12L223.93 13.12Q223.93 12.26 224.12 11.31Q224.31 10.36 224.65 9.44Q224.99 8.51 225.47 7.68Q225.95 6.85 226.51 6.21Q227.08 5.57 227.73 5.19Q228.38 4.82 229.07 4.82L229.07 4.82Q229.29 4.82 229.49 4.85Q229.68 4.89 229.91 4.98ZM245.95 5.75L245.95 5.75Q245.34 6.58 244.83 7.57Q244.33 8.57 243.97 9.61Q243.61 10.65 243.42 11.67Q243.24 12.68 243.24 13.57L243.24 13.57Q243.24 14.66 243.56 15.15Q243.88 15.64 244.66 15.64L244.66 15.64Q245.57 15.64 246.26 15.00Q246.95 14.36 247.55 13.24L247.55 13.24Q247.94 12.52 248.22 11.65Q248.50 10.78 248.67 9.86Q248.85 8.95 248.93 8.02Q249.02 7.08 249.02 6.23L249.02 6.23Q249.02 5.68 249.00 5.43Q248.99 5.18 248.96 5.03L248.96 5.03Q249.00 5.03 249.17 5.05Q249.34 5.08 249.56 5.12Q249.77 5.17 249.99 5.24Q250.21 5.31 250.36 5.39L250.36 5.39Q250.29 6.45 250.10 7.59Q249.91 8.72 249.61 9.83Q249.30 10.93 248.89 11.96Q248.49 12.98 247.98 13.79L247.98 13.79Q247.24 14.99 246.32 15.67Q245.39 16.35 244.13 16.35L244.13 16.35Q242.84 16.35 242.13 15.60Q241.42 14.85 241.42 13.33L241.42 13.33Q241.42 12.45 241.61 11.33Q241.81 10.22 242.14 9.07Q242.47 7.91 242.90 6.81Q243.33 5.71 243.81 4.84L243.81 4.84Q244.05 4.86 244.37 4.94Q244.69 5.03 245.00 5.16Q245.31 5.29 245.57 5.45Q245.83 5.61 245.95 5.75ZM266.46 5.74L266.46 5.74Q266.50 5.98 266.52 6.07Q266.55 6.16 266.55 6.31L266.55 6.31Q266.55 6.78 266.34 7.18Q266.14 7.57 265.79 7.74L265.79 7.74Q265.51 7.36 265.10 7.09Q264.70 6.82 264.21 6.64Q263.73 6.47 263.21 6.38Q262.70 6.30 262.21 6.30L262.21 6.30Q261.72 6.30 261.29 6.38Q260.86 6.45 260.53 6.59Q260.20 6.72 260.01 6.92Q259.83 7.11 259.83 7.36L259.83 7.36Q259.87 7.67 260.20 7.99Q260.54 8.30 261.03 8.60Q261.52 8.90 262.12 9.20Q262.71 9.49 263.28 9.76L263.28 9.76Q264.00 10.09 264.52 10.38Q265.03 10.67 265.37 11.01Q265.71 11.35 265.87 11.79Q266.04 12.22 266.04 12.84L266.04 12.84Q266.04 13.55 265.80 14.18Q265.57 14.80 265.11 15.26Q264.66 15.72 264.01 15.98Q263.37 16.24 262.57 16.24L262.57 16.24Q261.79 16.24 260.88 16.00Q259.97 15.76 259.18 15.35Q258.38 14.94 257.86 14.40Q257.33 13.86 257.33 13.26L257.33 13.26Q257.33 12.98 257.50 12.54Q257.66 12.11 258.08 11.63L258.08 11.63Q258.12 12.05 258.53 12.63Q258.94 13.20 259.77 13.69L259.77 13.69Q260.54 14.14 261.36 14.34Q262.18 14.55 262.89 14.55L262.89 14.55Q263.68 14.55 264.17 14.35Q264.66 14.15 264.94 13.88Q265.22 13.61 265.33 13.33Q265.44 13.05 265.45 12.88L265.45 12.88Q265.44 12.60 265.19 12.34Q264.95 12.08 264.54 11.84Q264.12 11.59 263.58 11.34Q263.03 11.09 262.44 10.84L262.44 10.84Q261.56 10.44 260.93 10.10Q260.29 9.76 259.88 9.40Q259.46 9.04 259.27 8.65Q259.08 8.26 259.08 7.76L259.08 7.76Q259.08 6.97 259.56 6.27Q260.04 5.57 260.93 5.21L260.93 5.21Q261.38 5.01 261.89 4.93Q262.40 4.84 262.89 4.84L262.89 4.84Q263.82 4.84 264.70 5.10Q265.58 5.35 266.46 5.74ZM294.01 7.46L294.01 7.46Q294.01 8.13 293.71 8.73Q293.41 9.32 292.88 9.79Q292.35 10.26 291.63 10.58Q290.92 10.91 290.08 11.02L290.08 11.02Q290.29 11.65 290.59 12.31Q290.89 12.98 291.24 13.59Q291.59 14.21 291.97 14.73Q292.35 15.25 292.71 15.58L292.71 15.58Q292.64 15.72 292.51 15.86Q292.38 16.00 292.20 16.12Q292.03 16.24 291.84 16.32Q291.65 16.39 291.48 16.39L291.48 16.39Q291.17 16.39 290.89 16.10Q290.61 15.81 290.32 15.17Q290.04 14.53 289.72 13.52Q289.41 12.50 289.03 11.07L289.03 11.07Q288.88 11.07 288.72 11.07Q288.57 11.07 288.48 11.05L288.48 11.05Q288.39 10.99 288.27 10.85L288.27 10.85Q287.90 11.66 287.60 12.38Q287.31 13.09 287.08 13.76Q286.85 14.42 286.67 15.04Q286.50 15.67 286.37 16.31L286.37 16.31Q285.89 16.20 285.54 15.90Q285.19 15.61 284.89 15.08L284.89 15.08Q284.94 14.95 285.00 14.83Q285.07 14.71 285.17 14.50Q285.26 14.28 285.41 13.94Q285.56 13.61 285.80 13.05Q286.05 12.49 286.39 11.68Q286.73 10.86 287.22 9.70L287.22 9.70Q287.45 9.18 287.61 8.79Q287.77 8.40 287.90 8.04Q288.02 7.69 288.13 7.33Q288.23 6.97 288.34 6.51L288.34 6.51Q287.70 6.73 287.15 7.01Q286.59 7.28 286.23 7.59L286.23 7.59Q286.10 7.50 285.97 7.34Q285.84 7.17 285.73 6.96Q285.61 6.76 285.53 6.55Q285.45 6.34 285.43 6.17L285.43 6.17Q285.85 5.89 286.46 5.66Q287.07 5.42 287.76 5.24Q288.44 5.07 289.16 4.97Q289.87 4.87 290.49 4.87L290.49 4.87Q292.17 4.87 293.09 5.56Q294.01 6.26 294.01 7.46ZM290.43 6.02L290.60 6.29Q290.50 6.41 290.29 6.79Q290.08 7.17 289.81 7.69Q289.53 8.22 289.23 8.83Q288.93 9.45 288.65 10.05L288.65 10.05Q289.70 10.05 290.58 9.86Q291.47 9.66 292.11 9.30Q292.75 8.95 293.11 8.46Q293.47 7.98 293.47 7.39L293.47 7.39Q293.47 6.69 292.96 6.32Q292.46 5.95 291.41 5.95L291.41 5.95Q291.17 5.95 290.93 5.97Q290.70 5.99 290.43 6.02L290.43 6.02ZM306.84 9.21L306.84 9.21Q307.30 9.21 307.56 9.46Q307.82 9.72 307.82 10.16L307.82 10.16Q307.82 10.28 307.80 10.39Q307.78 10.51 307.75 10.60L307.75 10.60Q307.57 10.57 307.34 10.55Q307.12 10.53 306.81 10.53L306.81 10.53Q306.21 10.53 305.59 10.63Q304.98 10.74 304.42 10.81L304.42 10.81Q304.09 11.55 303.83 12.24Q303.56 12.94 303.37 13.51Q303.18 14.08 303.08 14.50Q302.97 14.92 302.96 15.13L302.96 15.13Q304.09 14.90 305.25 14.73Q306.40 14.56 307.68 14.48L307.68 14.48Q307.83 14.71 307.94 14.99Q308.04 15.27 308.04 15.60L308.04 15.60Q308.04 15.68 308.04 15.78Q308.04 15.88 308.01 15.97L308.01 15.97Q307.62 15.96 307.19 15.95Q306.75 15.95 306.05 15.95L306.05 15.95Q305.59 15.95 305.18 15.97Q304.77 15.99 304.35 16.03Q303.93 16.07 303.46 16.14Q302.99 16.21 302.40 16.31L302.40 16.31Q301.76 16.06 301.15 15.08L301.15 15.08Q301.39 14.57 301.82 13.54Q302.25 12.52 302.90 10.79L302.90 10.79Q302.27 10.60 302.08 10.09L302.08 10.09Q302.15 10.02 302.48 9.92Q302.82 9.81 303.31 9.70L303.31 9.70Q303.52 9.16 303.67 8.75Q303.81 8.34 303.93 7.99Q304.04 7.63 304.13 7.29Q304.22 6.94 304.30 6.54L304.30 6.54Q303.81 6.51 303.53 6.27Q303.25 6.02 303.25 5.63L303.25 5.63Q303.25 5.52 303.29 5.36Q303.32 5.21 303.37 5.10L303.37 5.10Q303.65 5.14 303.90 5.15Q304.16 5.17 304.58 5.17L304.58 5.17Q305.47 5.17 306.24 5.12Q307.01 5.07 307.63 5.01Q308.25 4.96 308.70 4.91Q309.15 4.86 309.39 4.86L309.39 4.86Q309.71 4.86 309.96 5.19Q310.21 5.53 310.34 6.15L310.34 6.15Q309.90 6.10 309.63 6.09Q309.36 6.08 309.15 6.08L309.15 6.08Q308.38 6.08 307.74 6.15Q307.10 6.23 306.52 6.31L306.52 6.31Q306.43 6.44 306.33 6.64Q306.22 6.83 306.05 7.18Q305.89 7.53 305.64 8.06Q305.40 8.60 305.05 9.39L305.05 9.39Q305.58 9.31 306.05 9.26Q306.52 9.21 306.84 9.21ZM317.02 12.43L317.02 12.43Q317.02 11.45 317.25 10.51Q317.48 9.56 317.90 8.71Q318.32 7.87 318.90 7.16Q319.48 6.45 320.17 5.94Q320.87 5.42 321.65 5.13Q322.43 4.84 323.26 4.84L323.26 4.84Q324.23 4.84 324.76 5.25Q325.30 5.66 325.30 6.38L325.30 6.38Q325.30 6.66 325.23 6.96Q325.15 7.25 325.00 7.54Q324.86 7.83 324.66 8.09Q324.46 8.36 324.23 8.55L324.23 8.55Q323.86 8.50 323.60 8.22Q323.33 7.95 323.26 7.59L323.26 7.59Q323.75 7.18 324.04 6.74Q324.32 6.30 324.32 5.94L324.32 5.94Q324.32 5.32 323.55 5.32L323.55 5.32Q323.23 5.32 322.89 5.45Q322.55 5.59 322.20 5.82Q321.85 6.06 321.52 6.40Q321.19 6.73 320.91 7.14L320.91 7.14Q318.96 9.94 318.96 12.87L318.96 12.87Q318.96 13.90 319.28 14.53Q319.61 15.16 320.14 15.27L320.14 15.27Q320.74 15.13 321.66 14.50Q322.59 13.87 323.68 12.87L323.68 12.87Q323.82 13.01 323.85 13.16L323.85 13.16Q323.44 13.69 323.01 14.18Q322.57 14.67 322.15 15.08Q321.72 15.48 321.31 15.79Q320.89 16.10 320.54 16.27L320.54 16.27Q318.81 16.24 317.91 15.27Q317.02 14.31 317.02 12.43ZM332.32 14.38L332.32 14.38Q332.32 13.87 332.48 13.07Q332.64 12.26 332.90 11.33Q333.16 10.40 333.49 9.43Q333.83 8.46 334.18 7.60Q334.53 6.75 334.87 6.10Q335.20 5.46 335.47 5.18L335.47 5.18Q335.61 5.19 335.84 5.29Q336.07 5.38 336.31 5.50Q336.55 5.63 336.74 5.78Q336.94 5.92 336.99 6.05L336.99 6.05Q336.59 6.41 336.19 7.15Q335.79 7.88 335.42 8.82Q335.05 9.76 334.73 10.80Q334.40 11.84 334.17 12.82Q333.93 13.80 333.79 14.64Q333.66 15.48 333.66 16.00L333.66 16.00Q333.66 16.24 333.70 16.30L333.70 16.30Q333.40 16.28 333.26 16.19Q333.12 16.10 333.04 16.00Q332.96 15.89 332.90 15.79Q332.84 15.68 332.71 15.62L332.71 15.62Q332.61 15.58 332.54 15.43Q332.47 15.27 332.42 15.09Q332.37 14.90 332.35 14.70Q332.32 14.50 332.32 14.38ZM352.84 7.63L352.84 7.63Q352.84 8.40 352.46 9.10Q352.07 9.80 351.42 10.32Q350.77 10.85 349.89 11.16Q349.02 11.47 348.04 11.47L348.04 11.47Q347.69 11.47 347.49 11.38Q347.28 11.28 347.03 11.02L347.03 11.02Q346.33 12.54 345.89 13.82Q345.45 15.11 345.20 16.31L345.20 16.31Q344.67 16.18 344.33 15.87Q343.99 15.55 343.71 15.08L343.71 15.08Q343.85 14.81 344.05 14.38Q344.25 13.94 344.53 13.31Q344.81 12.67 345.18 11.78Q345.55 10.89 346.05 9.70L346.05 9.70Q346.28 9.16 346.44 8.75Q346.61 8.34 346.74 7.99Q346.86 7.63 346.97 7.28Q347.07 6.93 347.19 6.51L347.19 6.51Q346.53 6.72 345.98 7Q345.42 7.28 345.06 7.59L345.06 7.59Q344.93 7.50 344.80 7.34Q344.67 7.17 344.55 6.96Q344.44 6.76 344.36 6.55Q344.27 6.34 344.26 6.17L344.26 6.17Q344.67 5.89 345.27 5.66Q345.87 5.42 346.56 5.24Q347.24 5.07 347.98 4.97Q348.71 4.87 349.38 4.87L349.38 4.87Q350.18 4.87 350.83 5.07Q351.47 5.28 351.92 5.64Q352.37 6.01 352.60 6.51Q352.84 7.01 352.84 7.63ZM350.35 5.95L350.35 5.95Q349.82 5.95 349.26 6.03L349.26 6.03L349.43 6.29Q349.29 6.47 349.08 6.83Q348.87 7.20 348.61 7.71Q348.36 8.22 348.06 8.85Q347.76 9.48 347.42 10.18L347.42 10.18Q348.52 10.18 349.41 9.97Q350.31 9.77 350.94 9.41Q351.58 9.06 351.94 8.58Q352.30 8.11 352.30 7.56L352.30 7.56Q352.30 6.83 351.81 6.39Q351.32 5.95 350.35 5.95ZM365.08 9.21L365.08 9.21Q365.54 9.21 365.80 9.46Q366.06 9.72 366.06 10.16L366.06 10.16Q366.06 10.28 366.04 10.39Q366.02 10.51 365.99 10.60L365.99 10.60Q365.81 10.57 365.58 10.55Q365.36 10.53 365.05 10.53L365.05 10.53Q364.45 10.53 363.83 10.63Q363.22 10.74 362.66 10.81L362.66 10.81Q362.33 11.55 362.07 12.24Q361.80 12.94 361.61 13.51Q361.42 14.08 361.32 14.50Q361.21 14.92 361.20 15.13L361.20 15.13Q362.33 14.90 363.49 14.73Q364.64 14.56 365.92 14.48L365.92 14.48Q366.07 14.71 366.18 14.99Q366.28 15.27 366.28 15.60L366.28 15.60Q366.28 15.68 366.28 15.78Q366.28 15.88 366.25 15.97L366.25 15.97Q365.86 15.96 365.43 15.95Q364.99 15.95 364.29 15.95L364.29 15.95Q363.83 15.95 363.42 15.97Q363.01 15.99 362.59 16.03Q362.17 16.07 361.70 16.14Q361.23 16.21 360.64 16.31L360.64 16.31Q360.00 16.06 359.39 15.08L359.39 15.08Q359.63 14.57 360.06 13.54Q360.49 12.52 361.14 10.79L361.14 10.79Q360.51 10.60 360.32 10.09L360.32 10.09Q360.39 10.02 360.72 9.92Q361.06 9.81 361.55 9.70L361.55 9.70Q361.76 9.16 361.91 8.75Q362.05 8.34 362.17 7.99Q362.28 7.63 362.37 7.29Q362.46 6.94 362.54 6.54L362.54 6.54Q362.05 6.51 361.77 6.27Q361.49 6.02 361.49 5.63L361.49 5.63Q361.49 5.52 361.53 5.36Q361.56 5.21 361.61 5.10L361.61 5.10Q361.89 5.14 362.14 5.15Q362.40 5.17 362.82 5.17L362.82 5.17Q363.71 5.17 364.48 5.12Q365.25 5.07 365.87 5.01Q366.49 4.96 366.94 4.91Q367.39 4.86 367.63 4.86L367.63 4.86Q367.95 4.86 368.20 5.19Q368.45 5.53 368.58 6.15L368.58 6.15Q368.14 6.10 367.87 6.09Q367.60 6.08 367.39 6.08L367.39 6.08Q366.62 6.08 365.98 6.15Q365.34 6.23 364.76 6.31L364.76 6.31Q364.67 6.44 364.57 6.64Q364.46 6.83 364.29 7.18Q364.13 7.53 363.88 8.06Q363.64 8.60 363.29 9.39L363.29 9.39Q363.82 9.31 364.29 9.26Q364.76 9.21 365.08 9.21ZM383.95 5.74L383.95 5.74Q383.99 5.98 384.01 6.07Q384.03 6.16 384.03 6.31L384.03 6.31Q384.03 6.78 383.83 7.18Q383.63 7.57 383.28 7.74L383.28 7.74Q383.00 7.36 382.59 7.09Q382.19 6.82 381.70 6.64Q381.22 6.47 380.70 6.38Q380.18 6.30 379.69 6.30L379.69 6.30Q379.20 6.30 378.78 6.38Q378.35 6.45 378.02 6.59Q377.69 6.72 377.50 6.92Q377.31 7.11 377.31 7.36L377.31 7.36Q377.36 7.67 377.69 7.99Q378.03 8.30 378.52 8.60Q379.01 8.90 379.60 9.20Q380.20 9.49 380.77 9.76L380.77 9.76Q381.49 10.09 382.00 10.38Q382.52 10.67 382.86 11.01Q383.19 11.35 383.36 11.79Q383.53 12.22 383.53 12.84L383.53 12.84Q383.53 13.55 383.29 14.18Q383.05 14.80 382.60 15.26Q382.14 15.72 381.50 15.98Q380.86 16.24 380.06 16.24L380.06 16.24Q379.27 16.24 378.36 16.00Q377.45 15.76 376.66 15.35Q375.87 14.94 375.35 14.40Q374.82 13.86 374.82 13.26L374.82 13.26Q374.82 12.98 374.98 12.54Q375.14 12.11 375.56 11.63L375.56 11.63Q375.61 12.05 376.02 12.63Q376.43 13.20 377.26 13.69L377.26 13.69Q378.03 14.14 378.85 14.34Q379.67 14.55 380.38 14.55L380.38 14.55Q381.16 14.55 381.65 14.35Q382.14 14.15 382.42 13.88Q382.70 13.61 382.82 13.33Q382.93 13.05 382.94 12.88L382.94 12.88Q382.93 12.60 382.68 12.34Q382.44 12.08 382.03 11.84Q381.61 11.59 381.07 11.34Q380.52 11.09 379.93 10.84L379.93 10.84Q379.05 10.44 378.41 10.10Q377.78 9.76 377.36 9.40Q376.95 9.04 376.76 8.65Q376.57 8.26 376.57 7.76L376.57 7.76Q376.57 6.97 377.05 6.27Q377.52 5.57 378.42 5.21L378.42 5.21Q378.87 5.01 379.38 4.93Q379.89 4.84 380.38 4.84L380.38 4.84Q381.30 4.84 382.19 5.10Q383.07 5.35 383.95 5.74ZM403.77 15.61L403.77 15.61Q403.70 15.04 403.67 14.36Q403.63 13.68 403.63 13.09L403.63 13.09Q403.63 12.15 403.70 11.29Q403.76 10.43 403.85 9.48Q403.94 8.54 404.05 7.43Q404.17 6.31 404.25 4.86L404.25 4.86Q404.43 4.86 404.77 4.96Q405.12 5.07 405.47 5.21Q405.82 5.35 406.08 5.49Q406.35 5.64 406.39 5.74L406.39 5.74Q406.15 6.29 405.96 7.18Q405.78 8.06 405.65 9.11Q405.52 10.16 405.45 11.27Q405.38 12.38 405.38 13.34L405.38 13.34Q405.38 13.79 405.40 14.22Q405.41 14.66 405.44 15.02L405.44 15.02Q405.73 14.59 406.12 13.78Q406.50 12.98 406.92 11.98Q407.33 10.99 407.74 9.91Q408.16 8.82 408.51 7.83Q408.86 6.85 409.10 6.05Q409.35 5.26 409.44 4.86L409.44 4.86Q409.63 4.86 409.98 4.96Q410.34 5.07 410.68 5.21Q411.03 5.35 411.29 5.49Q411.56 5.64 411.59 5.74L411.59 5.74Q411.35 6.29 411.16 7.18Q410.97 8.06 410.84 9.11Q410.72 10.16 410.65 11.27Q410.58 12.38 410.58 13.34L410.58 13.34Q410.58 13.75 410.58 14.15Q410.59 14.55 410.62 14.87L410.62 14.87Q411.07 13.71 411.55 12.56Q412.03 11.42 412.51 10.38Q412.99 9.34 413.43 8.43Q413.88 7.53 414.26 6.82Q414.64 6.12 414.92 5.66Q415.20 5.19 415.35 5.04L415.35 5.04Q415.67 5.08 416.02 5.27Q416.36 5.46 416.63 5.75L416.63 5.75Q416.22 6.08 415.70 6.81Q415.18 7.55 414.64 8.51Q414.09 9.48 413.54 10.57Q412.99 11.66 412.51 12.70Q412.03 13.73 411.66 14.63Q411.29 15.53 411.10 16.07L411.10 16.07Q410.73 16.24 410.38 16.24L410.38 16.24Q409.93 16.18 409.53 16.02Q409.14 15.85 408.97 15.61L408.97 15.61Q408.93 15.39 408.90 15.09Q408.87 14.78 408.86 14.49Q408.84 14.20 408.83 13.92Q408.83 13.65 408.83 13.45L408.83 13.45Q408.83 12.21 408.93 10.91Q409.02 9.62 409.16 8.13L409.16 8.13Q408.84 9.09 408.45 10.18Q408.06 11.27 407.63 12.34Q407.20 13.41 406.76 14.38Q406.32 15.36 405.90 16.07L405.90 16.07Q405.54 16.24 405.19 16.24L405.19 16.24Q404.74 16.18 404.34 16.02Q403.94 15.85 403.77 15.61ZM422.74 14.38L422.74 14.38Q422.74 13.87 422.90 13.07Q423.07 12.26 423.32 11.33Q423.58 10.40 423.92 9.43Q424.26 8.46 424.61 7.60Q424.96 6.75 425.29 6.10Q425.63 5.46 425.89 5.18L425.89 5.18Q426.03 5.19 426.26 5.29Q426.50 5.38 426.73 5.50Q426.97 5.63 427.17 5.78Q427.36 5.92 427.42 6.05L427.42 6.05Q427.01 6.41 426.61 7.15Q426.22 7.88 425.84 8.82Q425.47 9.76 425.15 10.80Q424.83 11.84 424.59 12.82Q424.35 13.80 424.22 14.64Q424.09 15.48 424.09 16.00L424.09 16.00Q424.09 16.24 424.13 16.30L424.13 16.30Q423.82 16.28 423.68 16.19Q423.54 16.10 423.46 16.00Q423.39 15.89 423.32 15.79Q423.26 15.68 423.14 15.62L423.14 15.62Q423.04 15.58 422.97 15.43Q422.90 15.27 422.85 15.09Q422.80 14.90 422.77 14.70Q422.74 14.50 422.74 14.38ZM436.51 6.69L436.51 6.69Q435.95 6.69 435.64 6.38Q435.34 6.06 435.34 5.61L435.34 5.61Q435.34 5.50 435.38 5.35Q435.41 5.19 435.47 5.08L435.47 5.08Q435.65 5.17 436.01 5.20Q436.37 5.24 436.84 5.24L436.84 5.24Q437.56 5.24 438.46 5.17Q439.36 5.11 440.19 5.04Q441.01 4.97 441.64 4.91Q442.27 4.84 442.46 4.84L442.46 4.84Q442.97 4.84 443.20 5.23Q443.44 5.61 443.55 6.26L443.55 6.26Q443.18 6.23 442.83 6.21Q442.47 6.19 442.22 6.19L442.22 6.19Q441.77 6.19 441.31 6.22Q440.86 6.24 440.40 6.30L440.40 6.30Q440.20 6.71 439.96 7.26Q439.73 7.81 439.50 8.41Q439.26 9.02 439.05 9.61Q438.84 10.21 438.69 10.68L438.69 10.68Q438.38 11.61 438.15 12.39Q437.92 13.17 437.75 13.85Q437.57 14.53 437.44 15.15Q437.32 15.76 437.22 16.35L437.22 16.35Q436.28 16.21 435.65 15.18L435.65 15.18Q435.76 14.74 435.93 14.23Q436.09 13.72 436.30 13.07Q436.52 12.42 436.81 11.59Q437.11 10.77 437.49 9.72L437.49 9.72Q437.63 9.32 437.78 8.90Q437.93 8.47 438.08 8.05Q438.23 7.63 438.35 7.24Q438.47 6.85 438.55 6.52L438.55 6.52Q437.96 6.59 437.44 6.64Q436.91 6.69 436.51 6.69ZM454.43 14.36L454.43 14.36Q454.43 13.78 454.62 12.85Q454.82 11.93 455.14 10.88L455.14 10.88Q454.22 10.95 453.29 11.06Q452.35 11.17 451.67 11.19L451.67 11.19Q451.04 12.66 450.67 13.89Q450.30 15.13 450.09 16.31L450.09 16.31Q449.55 16.18 449.20 15.87Q448.85 15.55 448.56 15.08L448.56 15.08Q448.67 14.85 448.82 14.50Q448.97 14.15 449.17 13.66Q449.37 13.16 449.63 12.50Q449.89 11.83 450.23 10.95L450.23 10.95Q449.76 10.75 449.61 10.40L449.61 10.40Q449.68 10.35 449.93 10.28Q450.17 10.22 450.53 10.15L450.53 10.15L450.72 9.70Q451.01 8.95 451.20 8.43Q451.39 7.91 451.52 7.41Q451.65 6.92 451.77 6.31Q451.89 5.71 452.06 4.79L452.06 4.79Q452.65 4.90 453.13 5.31Q453.61 5.71 453.96 6.29L453.96 6.29Q453.84 6.45 453.66 6.79Q453.47 7.13 453.26 7.59Q453.04 8.06 452.79 8.64Q452.54 9.23 452.24 9.87L452.24 9.87Q453.11 9.76 454.00 9.66Q454.89 9.56 455.57 9.52L455.57 9.52Q455.83 8.79 456.10 8.10Q456.37 7.41 456.64 6.83Q456.90 6.26 457.15 5.82Q457.39 5.39 457.59 5.18L457.59 5.18Q457.73 5.19 457.96 5.29Q458.19 5.38 458.43 5.50Q458.67 5.63 458.86 5.78Q459.06 5.92 459.13 6.05L459.13 6.05Q458.88 6.29 458.63 6.66Q458.37 7.04 458.13 7.53Q457.88 8.02 457.65 8.60Q457.41 9.17 457.20 9.79L457.20 9.79Q457.48 10.04 457.48 10.42L457.48 10.42Q457.48 10.68 457.37 10.91L457.37 10.91Q457.24 10.88 457.11 10.87Q456.99 10.86 456.85 10.85L456.85 10.85Q456.61 11.61 456.41 12.35Q456.22 13.09 456.09 13.76Q455.95 14.43 455.88 14.99Q455.80 15.55 455.80 15.93L455.80 15.93Q455.80 16.07 455.81 16.16Q455.81 16.24 455.83 16.30L455.83 16.30Q455.52 16.28 455.38 16.19Q455.24 16.10 455.17 16.00Q455.10 15.89 455.04 15.79Q454.99 15.68 454.86 15.62L454.86 15.62Q454.76 15.58 454.68 15.43Q454.59 15.27 454.54 15.08Q454.48 14.88 454.45 14.69Q454.43 14.49 454.43 14.36ZM480.91 10.35L480.91 10.35Q481.96 9.20 482.80 7.91Q483.63 6.62 484.34 5.01L484.34 5.01Q484.71 5.05 485.04 5.21Q485.38 5.36 485.58 5.56L485.58 5.56Q484.81 6.48 484.18 7.24Q483.56 7.99 483.04 8.66Q482.52 9.32 482.08 9.93Q481.64 10.54 481.22 11.16L481.22 11.16Q481.01 11.87 480.83 12.60Q480.65 13.33 480.51 13.99Q480.37 14.66 480.29 15.22Q480.21 15.79 480.21 16.20L480.21 16.20Q480.06 16.20 479.72 16.14Q479.39 16.07 479.04 15.99Q478.69 15.90 478.40 15.82Q478.11 15.74 478.06 15.68L478.06 15.68Q478.28 15.30 478.50 14.75Q478.72 14.20 478.93 13.59Q479.14 12.98 479.33 12.36Q479.53 11.73 479.70 11.20L479.70 11.20Q479.35 10.11 479.02 9.15Q478.69 8.19 478.38 7.41Q478.07 6.64 477.79 6.08Q477.51 5.52 477.26 5.22L477.26 5.22Q477.40 5.17 477.69 5.11Q477.97 5.05 478.32 5.00Q478.66 4.94 479.02 4.91Q479.37 4.87 479.65 4.86L479.65 4.86Q479.65 5.21 479.72 5.71Q479.78 6.22 479.88 6.79Q479.99 7.36 480.13 7.95Q480.27 8.54 480.41 9.03Q480.55 9.52 480.68 9.88Q480.82 10.23 480.91 10.35ZM497.56 4.98L497.56 4.98Q497.83 5.10 498.11 5.27Q498.39 5.45 498.62 5.63Q498.86 5.81 499.02 5.98Q499.18 6.16 499.20 6.27L499.20 6.27Q498.96 6.22 498.72 6.20Q498.48 6.17 498.29 6.17L498.29 6.17Q497.66 6.17 497.04 6.48Q496.41 6.79 495.85 7.32Q495.29 7.85 494.82 8.57Q494.34 9.28 494.00 10.09Q493.65 10.91 493.46 11.77Q493.26 12.64 493.26 13.48L493.26 13.48Q493.26 14.57 493.63 15.11Q493.99 15.64 494.69 15.64L494.69 15.64Q495.03 15.64 495.42 15.51Q495.81 15.37 496.22 15.13Q496.62 14.90 497.01 14.56Q497.41 14.22 497.74 13.82L497.74 13.82Q498.23 13.23 498.62 12.48Q499.02 11.73 499.29 10.89Q499.56 10.05 499.71 9.16Q499.86 8.27 499.86 7.42L499.86 7.42Q499.86 7.08 499.84 6.85Q499.83 6.62 499.81 6.46Q499.79 6.30 499.77 6.20Q499.76 6.10 499.74 6.03L499.74 6.03Q499.91 6.12 500.12 6.24Q500.32 6.36 500.49 6.59Q500.67 6.82 500.79 7.20Q500.91 7.57 500.91 8.18L500.91 8.18Q500.91 9.16 500.68 10.10Q500.44 11.05 500.03 11.90Q499.62 12.75 499.06 13.50Q498.50 14.24 497.85 14.80L497.85 14.80Q497.01 15.54 496.06 15.95Q495.11 16.35 494.23 16.35L494.23 16.35Q492.94 16.35 492.26 15.53Q491.58 14.71 491.58 13.12L491.58 13.12Q491.58 12.26 491.77 11.31Q491.96 10.36 492.30 9.44Q492.65 8.51 493.12 7.68Q493.60 6.85 494.17 6.21Q494.73 5.57 495.38 5.19Q496.03 4.82 496.72 4.82L496.72 4.82Q496.94 4.82 497.14 4.85Q497.34 4.89 497.56 4.98ZM513.60 5.75L513.60 5.75Q512.99 6.58 512.48 7.57Q511.98 8.57 511.62 9.61Q511.27 10.65 511.08 11.67Q510.89 12.68 510.89 13.57L510.89 13.57Q510.89 14.66 511.21 15.15Q511.53 15.64 512.32 15.64L512.32 15.64Q513.23 15.64 513.91 15.00Q514.60 14.36 515.20 13.24L515.20 13.24Q515.59 12.52 515.87 11.65Q516.15 10.78 516.33 9.86Q516.50 8.95 516.59 8.02Q516.67 7.08 516.67 6.23L516.67 6.23Q516.67 5.68 516.66 5.43Q516.64 5.18 516.61 5.03L516.61 5.03Q516.66 5.03 516.82 5.05Q516.99 5.08 517.21 5.12Q517.43 5.17 517.64 5.24Q517.86 5.31 518.01 5.39L518.01 5.39Q517.94 6.45 517.75 7.59Q517.57 8.72 517.26 9.83Q516.95 10.93 516.54 11.96Q516.14 12.98 515.63 13.79L515.63 13.79Q514.89 14.99 513.97 15.67Q513.04 16.35 511.78 16.35L511.78 16.35Q510.50 16.35 509.78 15.60Q509.07 14.85 509.07 13.33L509.07 13.33Q509.07 12.45 509.26 11.33Q509.46 10.22 509.79 9.07Q510.12 7.91 510.55 6.81Q510.99 5.71 511.46 4.84L511.46 4.84Q511.70 4.86 512.02 4.94Q512.34 5.03 512.65 5.16Q512.96 5.29 513.22 5.45Q513.48 5.61 513.60 5.75ZM534.51 7.46L534.51 7.46Q534.51 8.13 534.21 8.73Q533.90 9.32 533.37 9.79Q532.84 10.26 532.13 10.58Q531.41 10.91 530.57 11.02L530.57 11.02Q530.78 11.65 531.08 12.31Q531.38 12.98 531.73 13.59Q532.08 14.21 532.46 14.73Q532.84 15.25 533.20 15.58L533.20 15.58Q533.13 15.72 533.00 15.86Q532.87 16.00 532.69 16.12Q532.52 16.24 532.33 16.32Q532.14 16.39 531.97 16.39L531.97 16.39Q531.66 16.39 531.38 16.10Q531.10 15.81 530.82 15.17Q530.53 14.53 530.22 13.52Q529.90 12.50 529.52 11.07L529.52 11.07Q529.37 11.07 529.21 11.07Q529.06 11.07 528.98 11.05L528.98 11.05Q528.88 10.99 528.77 10.85L528.77 10.85Q528.39 11.66 528.09 12.38Q527.80 13.09 527.57 13.76Q527.34 14.42 527.16 15.04Q526.99 15.67 526.86 16.31L526.86 16.31Q526.39 16.20 526.04 15.90Q525.69 15.61 525.38 15.08L525.38 15.08Q525.43 14.95 525.50 14.83Q525.56 14.71 525.66 14.50Q525.76 14.28 525.90 13.94Q526.05 13.61 526.29 13.05Q526.54 12.49 526.88 11.68Q527.23 10.86 527.72 9.70L527.72 9.70Q527.94 9.18 528.10 8.79Q528.26 8.40 528.39 8.04Q528.51 7.69 528.62 7.33Q528.72 6.97 528.84 6.51L528.84 6.51Q528.19 6.73 527.64 7.01Q527.09 7.28 526.72 7.59L526.72 7.59Q526.60 7.50 526.46 7.34Q526.33 7.17 526.22 6.96Q526.11 6.76 526.02 6.55Q525.94 6.34 525.92 6.17L525.92 6.17Q526.34 5.89 526.95 5.66Q527.56 5.42 528.25 5.24Q528.93 5.07 529.65 4.97Q530.36 4.87 530.98 4.87L530.98 4.87Q532.66 4.87 533.58 5.56Q534.51 6.26 534.51 7.46ZM530.92 6.02L531.09 6.29Q530.99 6.41 530.78 6.79Q530.57 7.17 530.30 7.69Q530.03 8.22 529.73 8.83Q529.42 9.45 529.14 10.05L529.14 10.05Q530.19 10.05 531.08 9.86Q531.96 9.66 532.60 9.30Q533.25 8.95 533.60 8.46Q533.96 7.98 533.96 7.39L533.96 7.39Q533.96 6.69 533.46 6.32Q532.95 5.95 531.90 5.95L531.90 5.95Q531.66 5.95 531.43 5.97Q531.19 5.99 530.92 6.02L530.92 6.02ZM552.41 14.38L552.41 14.38Q552.41 13.87 552.57 13.07Q552.73 12.26 552.99 11.33Q553.25 10.40 553.59 9.43Q553.92 8.46 554.27 7.60Q554.62 6.75 554.96 6.10Q555.30 5.46 555.56 5.18L555.56 5.18Q555.70 5.19 555.93 5.29Q556.16 5.38 556.40 5.50Q556.64 5.63 556.84 5.78Q557.03 5.92 557.09 6.05L557.09 6.05Q556.68 6.41 556.28 7.15Q555.88 7.88 555.51 8.82Q555.14 9.76 554.82 10.80Q554.50 11.84 554.26 12.82Q554.02 13.80 553.89 14.64Q553.76 15.48 553.76 16.00L553.76 16.00Q553.76 16.24 553.80 16.30L553.80 16.30Q553.49 16.28 553.35 16.19Q553.21 16.10 553.13 16.00Q553.06 15.89 552.99 15.79Q552.93 15.68 552.80 15.62L552.80 15.62Q552.71 15.58 552.64 15.43Q552.57 15.27 552.52 15.09Q552.47 14.90 552.44 14.70Q552.41 14.50 552.41 14.38ZM564.65 16.24L564.65 16.24Q563.85 16.00 563.57 15.79Q563.29 15.57 563.29 15.19L563.29 15.19Q563.29 14.77 563.49 14.01Q563.68 13.24 564.00 12.31Q564.31 11.37 564.72 10.35Q565.12 9.32 565.54 8.39Q565.96 7.45 566.36 6.67Q566.76 5.89 567.07 5.46L567.07 5.46L566.97 4.87Q567.17 4.87 567.52 4.97Q567.87 5.07 568.22 5.21Q568.58 5.35 568.85 5.49Q569.13 5.64 569.16 5.74L569.16 5.74Q569.09 6.08 569.04 6.76Q569.00 7.43 569.00 8.20L569.00 8.20Q569.00 9.73 569.12 11.19Q569.24 12.66 569.67 14.17L569.67 14.17Q569.90 13.05 570.16 11.94Q570.42 10.82 570.70 9.81Q570.98 8.79 571.26 7.92Q571.54 7.06 571.79 6.40Q572.05 5.75 572.28 5.38Q572.50 5.01 572.68 4.98L572.68 4.98Q572.84 5.01 573.02 5.10Q573.20 5.19 573.37 5.32Q573.54 5.45 573.68 5.60Q573.82 5.75 573.90 5.91L573.90 5.91Q573.45 6.09 573.01 6.76Q572.57 7.43 572.17 8.39Q571.77 9.35 571.43 10.47Q571.09 11.59 570.83 12.68Q570.57 13.76 570.42 14.69Q570.28 15.61 570.26 16.17L570.26 16.17Q570.26 16.20 570.28 16.21L570.28 16.21Q570.23 16.23 570.18 16.23Q570.14 16.23 570.09 16.23L570.09 16.23Q569.45 16.23 568.95 16.07Q568.46 15.90 568.30 15.61L568.30 15.61Q568.01 14.43 567.81 13.34Q567.62 12.25 567.48 11.16Q567.35 10.07 567.27 8.95Q567.20 7.84 567.15 6.62L567.15 6.62Q566.89 7.04 566.59 7.72Q566.30 8.40 566.02 9.21Q565.74 10.02 565.48 10.92Q565.22 11.82 565.03 12.67Q564.83 13.52 564.72 14.29Q564.61 15.05 564.61 15.61L564.61 15.61Q564.61 15.90 564.61 16.03Q564.62 16.16 564.65 16.24ZM587.72 10.72L587.72 10.72Q588.08 10.72 588.29 10.98Q588.50 11.23 588.50 11.68L588.50 11.68Q588.50 11.79 588.49 11.91Q588.48 12.03 588.45 12.11L588.45 12.11Q588.15 12.04 587.80 12.03L587.80 12.03Q587.72 12.64 587.36 13.32Q586.99 14 586.47 14.60Q585.96 15.19 585.34 15.64Q584.72 16.09 584.12 16.24L584.12 16.24Q582.25 16.20 581.38 15.27Q580.52 14.34 580.52 12.36L580.52 12.36Q580.52 10.92 581.06 9.57Q581.59 8.22 582.47 7.17Q583.35 6.12 584.49 5.48Q585.63 4.84 586.87 4.84L586.87 4.84Q587.83 4.84 588.37 5.25Q588.91 5.66 588.91 6.40L588.91 6.40Q588.91 6.89 588.68 7.31Q588.45 7.73 587.92 8.22L587.92 8.22Q587.59 8.12 587.36 7.88Q587.12 7.63 587.06 7.31L587.06 7.31Q587.54 6.96 587.73 6.66Q587.93 6.37 587.93 5.96L587.93 5.96Q587.93 5.32 587.16 5.32L587.16 5.32Q586.53 5.32 585.81 5.79Q585.09 6.26 584.36 7.14L584.36 7.14Q583.32 8.39 582.85 9.71Q582.37 11.03 582.37 12.68L582.37 12.68Q582.37 13.30 582.50 13.80Q582.62 14.31 582.83 14.69Q583.04 15.06 583.33 15.29Q583.62 15.51 583.95 15.54L583.95 15.54Q584.40 15.44 584.85 15.09Q585.30 14.73 585.67 14.25Q586.04 13.76 586.30 13.21Q586.56 12.66 586.61 12.15L586.61 12.15Q586.22 12.24 585.87 12.31Q585.51 12.39 585.19 12.39L585.19 12.39Q584.77 12.39 584.45 12.18Q584.14 11.97 584.02 11.61L584.02 11.61Q584.28 11.47 584.76 11.31Q585.24 11.16 585.79 11.03Q586.33 10.89 586.86 10.81Q587.38 10.72 587.72 10.72ZM605.58 7.46L605.58 7.46Q605.58 8.13 605.28 8.73Q604.98 9.32 604.45 9.79Q603.92 10.26 603.20 10.58Q602.49 10.91 601.65 11.02L601.65 11.02Q601.86 11.65 602.16 12.31Q602.46 12.98 602.81 13.59Q603.16 14.21 603.54 14.73Q603.92 15.25 604.28 15.58L604.28 15.58Q604.21 15.72 604.08 15.86Q603.95 16.00 603.77 16.12Q603.60 16.24 603.41 16.32Q603.22 16.39 603.05 16.39L603.05 16.39Q602.74 16.39 602.46 16.10Q602.18 15.81 601.89 15.17Q601.61 14.53 601.29 13.52Q600.98 12.50 600.60 11.07L600.60 11.07Q600.45 11.07 600.29 11.07Q600.14 11.07 600.05 11.05L600.05 11.05Q599.96 10.99 599.84 10.85L599.84 10.85Q599.47 11.66 599.17 12.38Q598.88 13.09 598.65 13.76Q598.42 14.42 598.24 15.04Q598.07 15.67 597.94 16.31L597.94 16.31Q597.46 16.20 597.11 15.90Q596.76 15.61 596.46 15.08L596.46 15.08Q596.51 14.95 596.57 14.83Q596.64 14.71 596.74 14.50Q596.83 14.28 596.98 13.94Q597.13 13.61 597.37 13.05Q597.62 12.49 597.96 11.68Q598.30 10.86 598.79 9.70L598.79 9.70Q599.02 9.18 599.18 8.79Q599.34 8.40 599.47 8.04Q599.59 7.69 599.70 7.33Q599.80 6.97 599.91 6.51L599.91 6.51Q599.27 6.73 598.72 7.01Q598.16 7.28 597.80 7.59L597.80 7.59Q597.67 7.50 597.54 7.34Q597.41 7.17 597.30 6.96Q597.18 6.76 597.10 6.55Q597.02 6.34 597.00 6.17L597.00 6.17Q597.42 5.89 598.03 5.66Q598.64 5.42 599.33 5.24Q600.01 5.07 600.73 4.97Q601.44 4.87 602.06 4.87L602.06 4.87Q603.74 4.87 604.66 5.56Q605.58 6.26 605.58 7.46ZM602 6.02L602.17 6.29Q602.07 6.41 601.86 6.79Q601.65 7.17 601.38 7.69Q601.10 8.22 600.80 8.83Q600.50 9.45 600.22 10.05L600.22 10.05Q601.27 10.05 602.15 9.86Q603.04 9.66 603.68 9.30Q604.32 8.95 604.68 8.46Q605.04 7.98 605.04 7.39L605.04 7.39Q605.04 6.69 604.53 6.32Q604.03 5.95 602.98 5.95L602.98 5.95Q602.74 5.95 602.50 5.97Q602.27 5.99 602 6.02L602 6.02ZM618.41 9.21L618.41 9.21Q618.87 9.21 619.13 9.46Q619.39 9.72 619.39 10.16L619.39 10.16Q619.39 10.28 619.37 10.39Q619.35 10.51 619.32 10.60L619.32 10.60Q619.14 10.57 618.91 10.55Q618.69 10.53 618.38 10.53L618.38 10.53Q617.78 10.53 617.16 10.63Q616.55 10.74 615.99 10.81L615.99 10.81Q615.66 11.55 615.40 12.24Q615.13 12.94 614.94 13.51Q614.75 14.08 614.65 14.50Q614.54 14.92 614.53 15.13L614.53 15.13Q615.66 14.90 616.82 14.73Q617.97 14.56 619.25 14.48L619.25 14.48Q619.40 14.71 619.51 14.99Q619.61 15.27 619.61 15.60L619.61 15.60Q619.61 15.68 619.61 15.78Q619.61 15.88 619.58 15.97L619.58 15.97Q619.19 15.96 618.76 15.95Q618.32 15.95 617.62 15.95L617.62 15.95Q617.16 15.95 616.75 15.97Q616.34 15.99 615.92 16.03Q615.50 16.07 615.03 16.14Q614.56 16.21 613.97 16.31L613.97 16.31Q613.33 16.06 612.72 15.08L612.72 15.08Q612.96 14.57 613.39 13.54Q613.82 12.52 614.47 10.79L614.47 10.79Q613.84 10.60 613.65 10.09L613.65 10.09Q613.72 10.02 614.05 9.92Q614.39 9.81 614.88 9.70L614.88 9.70Q615.09 9.16 615.24 8.75Q615.38 8.34 615.50 7.99Q615.61 7.63 615.70 7.29Q615.79 6.94 615.87 6.54L615.87 6.54Q615.38 6.51 615.10 6.27Q614.82 6.02 614.82 5.63L614.82 5.63Q614.82 5.52 614.86 5.36Q614.89 5.21 614.94 5.10L614.94 5.10Q615.22 5.14 615.48 5.15Q615.73 5.17 616.15 5.17L616.15 5.17Q617.04 5.17 617.81 5.12Q618.58 5.07 619.20 5.01Q619.82 4.96 620.27 4.91Q620.72 4.86 620.96 4.86L620.96 4.86Q621.28 4.86 621.53 5.19Q621.78 5.53 621.91 6.15L621.91 6.15Q621.47 6.10 621.20 6.09Q620.93 6.08 620.72 6.08L620.72 6.08Q619.95 6.08 619.31 6.15Q618.67 6.23 618.09 6.31L618.09 6.31Q618.00 6.44 617.90 6.64Q617.79 6.83 617.62 7.18Q617.46 7.53 617.21 8.06Q616.97 8.60 616.62 9.39L616.62 9.39Q617.15 9.31 617.62 9.26Q618.09 9.21 618.41 9.21ZM629.09 14.45L629.09 14.45Q629.30 13.99 629.59 13.26Q629.89 12.53 630.21 11.68Q630.53 10.84 630.87 9.95Q631.20 9.06 631.50 8.26Q631.79 7.46 632.01 6.83Q632.23 6.20 632.32 5.87L632.32 5.87Q631.44 6.23 630.81 6.97Q630.18 7.71 629.86 8.83L629.86 8.83Q629.54 8.72 629.27 8.43Q629.01 8.15 628.92 7.71L628.92 7.71Q629.06 7.07 629.45 6.54Q629.83 6.01 630.42 5.63Q631.01 5.25 631.78 5.05Q632.55 4.84 633.43 4.84L633.43 4.84Q634.55 4.84 635.49 5.17Q636.43 5.50 637.10 6.09Q637.77 6.68 638.15 7.50Q638.53 8.33 638.53 9.34L638.53 9.34Q638.53 10.71 638.02 11.96Q637.52 13.20 636.66 14.15Q635.80 15.11 634.66 15.67Q633.53 16.24 632.28 16.24L632.28 16.24Q631.13 16.24 630.31 15.79Q629.50 15.33 629.09 14.45ZM634.03 5.54L634.03 5.54Q633.33 5.54 632.70 5.74L632.70 5.74Q633.32 5.96 633.72 6.21Q634.13 6.45 634.28 6.59L634.28 6.59Q634.17 6.75 633.95 7.14Q633.74 7.53 633.45 8.09Q633.16 8.65 632.84 9.32Q632.52 9.98 632.21 10.68L632.21 10.68Q631.41 12.46 631.06 13.48Q630.70 14.50 630.70 14.90L630.70 14.90Q630.90 14.97 631.18 14.99Q631.46 15.02 631.78 15.02L631.78 15.02Q632.91 15.02 633.93 14.50Q634.94 13.97 635.70 13.09Q636.47 12.21 636.91 11.04Q637.35 9.87 637.35 8.58L637.35 8.58Q637.35 7.14 636.45 6.34Q635.56 5.54 634.03 5.54ZM646.46 14.38L646.46 14.38Q646.46 13.87 646.63 13.07Q646.79 12.26 647.04 11.33Q647.30 10.40 647.64 9.43Q647.98 8.46 648.33 7.60Q648.68 6.75 649.01 6.10Q649.35 5.46 649.61 5.18L649.61 5.18Q649.75 5.19 649.99 5.29Q650.22 5.38 650.45 5.50Q650.69 5.63 650.89 5.78Q651.08 5.92 651.14 6.05L651.14 6.05Q650.73 6.41 650.34 7.15Q649.94 7.88 649.56 8.82Q649.19 9.76 648.87 10.80Q648.55 11.84 648.31 12.82Q648.07 13.80 647.94 14.64Q647.81 15.48 647.81 16.00L647.81 16.00Q647.81 16.24 647.85 16.30L647.85 16.30Q647.54 16.28 647.40 16.19Q647.26 16.10 647.18 16.00Q647.11 15.89 647.04 15.79Q646.98 15.68 646.86 15.62L646.86 15.62Q646.76 15.58 646.69 15.43Q646.62 15.27 646.57 15.09Q646.52 14.90 646.49 14.70Q646.46 14.50 646.46 14.38ZM663.24 9.21L663.24 9.21Q663.70 9.21 663.96 9.46Q664.22 9.72 664.22 10.16L664.22 10.16Q664.22 10.28 664.19 10.39Q664.17 10.51 664.15 10.60L664.15 10.60Q663.96 10.57 663.74 10.55Q663.52 10.53 663.21 10.53L663.21 10.53Q662.61 10.53 661.99 10.63Q661.37 10.74 660.81 10.81L660.81 10.81Q660.49 11.55 660.23 12.24Q659.96 12.94 659.77 13.51Q659.58 14.08 659.48 14.50Q659.37 14.92 659.36 15.13L659.36 15.13Q660.49 14.90 661.65 14.73Q662.80 14.56 664.08 14.48L664.08 14.48Q664.23 14.71 664.33 14.99Q664.44 15.27 664.44 15.60L664.44 15.60Q664.44 15.68 664.44 15.78Q664.44 15.88 664.41 15.97L664.41 15.97Q664.02 15.96 663.59 15.95Q663.15 15.95 662.45 15.95L662.45 15.95Q661.99 15.95 661.58 15.97Q661.16 15.99 660.74 16.03Q660.32 16.07 659.86 16.14Q659.39 16.21 658.80 16.31L658.80 16.31Q658.15 16.06 657.55 15.08L657.55 15.08Q657.79 14.57 658.22 13.54Q658.64 12.52 659.30 10.79L659.30 10.79Q658.67 10.60 658.48 10.09L658.48 10.09Q658.55 10.02 658.88 9.92Q659.22 9.81 659.71 9.70L659.71 9.70Q659.92 9.16 660.06 8.75Q660.21 8.34 660.32 7.99Q660.44 7.63 660.53 7.29Q660.62 6.94 660.70 6.54L660.70 6.54Q660.21 6.51 659.93 6.27Q659.65 6.02 659.65 5.63L659.65 5.63Q659.65 5.52 659.69 5.36Q659.72 5.21 659.76 5.10L659.76 5.10Q660.04 5.14 660.30 5.15Q660.56 5.17 660.98 5.17L660.98 5.17Q661.86 5.17 662.63 5.12Q663.40 5.07 664.03 5.01Q664.65 4.96 665.10 4.91Q665.55 4.86 665.78 4.86L665.78 4.86Q666.11 4.86 666.36 5.19Q666.61 5.53 666.74 6.15L666.74 6.15Q666.30 6.10 666.03 6.09Q665.76 6.08 665.55 6.08L665.55 6.08Q664.78 6.08 664.14 6.15Q663.50 6.23 662.91 6.31L662.91 6.31Q662.83 6.44 662.72 6.64Q662.62 6.83 662.45 7.18Q662.28 7.53 662.04 8.06Q661.79 8.60 661.44 9.39L661.44 9.39Q661.98 9.31 662.44 9.26Q662.91 9.21 663.24 9.21ZM674.23 16.24L674.23 16.24Q673.43 16.00 673.15 15.79Q672.87 15.57 672.87 15.19L672.87 15.19Q672.87 14.77 673.06 14.01Q673.26 13.24 673.57 12.31Q673.89 11.37 674.30 10.35Q674.70 9.32 675.12 8.39Q675.54 7.45 675.94 6.67Q676.34 5.89 676.65 5.46L676.65 5.46L676.55 4.87Q676.75 4.87 677.10 4.97Q677.45 5.07 677.80 5.21Q678.16 5.35 678.43 5.49Q678.71 5.64 678.73 5.74L678.73 5.74Q678.66 6.08 678.62 6.76Q678.58 7.43 678.58 8.20L678.58 8.20Q678.58 9.73 678.70 11.19Q678.82 12.66 679.25 14.17L679.25 14.17Q679.48 13.05 679.73 11.94Q679.99 10.82 680.27 9.81Q680.55 8.79 680.83 7.92Q681.11 7.06 681.37 6.40Q681.63 5.75 681.86 5.38Q682.08 5.01 682.26 4.98L682.26 4.98Q682.42 5.01 682.60 5.10Q682.78 5.19 682.95 5.32Q683.12 5.45 683.26 5.60Q683.40 5.75 683.48 5.91L683.48 5.91Q683.03 6.09 682.59 6.76Q682.15 7.43 681.75 8.39Q681.35 9.35 681.01 10.47Q680.67 11.59 680.41 12.68Q680.15 13.76 680.00 14.69Q679.85 15.61 679.84 16.17L679.84 16.17Q679.84 16.20 679.85 16.21L679.85 16.21Q679.81 16.23 679.76 16.23Q679.71 16.23 679.67 16.23L679.67 16.23Q679.03 16.23 678.53 16.07Q678.03 15.90 677.88 15.61L677.88 15.61Q677.59 14.43 677.39 13.34Q677.19 12.25 677.06 11.16Q676.93 10.07 676.85 8.95Q676.77 7.84 676.73 6.62L676.73 6.62Q676.47 7.04 676.17 7.72Q675.88 8.40 675.60 9.21Q675.32 10.02 675.06 10.92Q674.80 11.82 674.60 12.67Q674.41 13.52 674.30 14.29Q674.18 15.05 674.18 15.61L674.18 15.61Q674.18 15.90 674.19 16.03Q674.20 16.16 674.23 16.24ZM692.31 6.69L692.31 6.69Q691.75 6.69 691.45 6.38Q691.15 6.06 691.15 5.61L691.15 5.61Q691.15 5.50 691.19 5.35Q691.22 5.19 691.28 5.08L691.28 5.08Q691.46 5.17 691.82 5.20Q692.17 5.24 692.65 5.24L692.65 5.24Q693.36 5.24 694.27 5.17Q695.17 5.11 696.00 5.04Q696.82 4.97 697.45 4.91Q698.08 4.84 698.26 4.84L698.26 4.84Q698.78 4.84 699.01 5.23Q699.24 5.61 699.36 6.26L699.36 6.26Q698.99 6.23 698.63 6.21Q698.28 6.19 698.03 6.19L698.03 6.19Q697.58 6.19 697.12 6.22Q696.67 6.24 696.21 6.30L696.21 6.30Q696.01 6.71 695.77 7.26Q695.53 7.81 695.30 8.41Q695.07 9.02 694.86 9.61Q694.65 10.21 694.50 10.68L694.50 10.68Q694.19 11.61 693.96 12.39Q693.73 13.17 693.55 13.85Q693.38 14.53 693.25 15.15Q693.13 15.76 693.03 16.35L693.03 16.35Q692.09 16.21 691.46 15.18L691.46 15.18Q691.57 14.74 691.73 14.23Q691.89 13.72 692.11 13.07Q692.33 12.42 692.62 11.59Q692.92 10.77 693.29 9.72L693.29 9.72Q693.43 9.32 693.59 8.90Q693.74 8.47 693.89 8.05Q694.04 7.63 694.15 7.24Q694.27 6.85 694.36 6.52L694.36 6.52Q693.77 6.59 693.24 6.64Q692.72 6.69 692.31 6.69ZM713.90 5.74L713.90 5.74Q713.94 5.98 713.96 6.07Q713.99 6.16 713.99 6.31L713.99 6.31Q713.99 6.78 713.78 7.18Q713.58 7.57 713.23 7.74L713.23 7.74Q712.95 7.36 712.54 7.09Q712.14 6.82 711.65 6.64Q711.17 6.47 710.65 6.38Q710.14 6.30 709.65 6.30L709.65 6.30Q709.16 6.30 708.73 6.38Q708.30 6.45 707.97 6.59Q707.64 6.72 707.45 6.92Q707.27 7.11 707.27 7.36L707.27 7.36Q707.31 7.67 707.64 7.99Q707.98 8.30 708.47 8.60Q708.96 8.90 709.55 9.20Q710.15 9.49 710.72 9.76L710.72 9.76Q711.44 10.09 711.96 10.38Q712.47 10.67 712.81 11.01Q713.15 11.35 713.31 11.79Q713.48 12.22 713.48 12.84L713.48 12.84Q713.48 13.55 713.24 14.18Q713.01 14.80 712.55 15.26Q712.10 15.72 711.45 15.98Q710.81 16.24 710.01 16.24L710.01 16.24Q709.23 16.24 708.32 16.00Q707.41 15.76 706.61 15.35Q705.82 14.94 705.30 14.40Q704.77 13.86 704.77 13.26L704.77 13.26Q704.77 12.98 704.93 12.54Q705.10 12.11 705.52 11.63L705.52 11.63Q705.56 12.05 705.97 12.63Q706.38 13.20 707.21 13.69L707.21 13.69Q707.98 14.14 708.80 14.34Q709.62 14.55 710.33 14.55L710.33 14.55Q711.12 14.55 711.61 14.35Q712.10 14.15 712.38 13.88Q712.66 13.61 712.77 13.33Q712.88 13.05 712.89 12.88L712.89 12.88Q712.88 12.60 712.63 12.34Q712.39 12.08 711.98 11.84Q711.56 11.59 711.02 11.34Q710.47 11.09 709.88 10.84L709.88 10.84Q709.00 10.44 708.36 10.10Q707.73 9.76 707.31 9.40Q706.90 9.04 706.71 8.65Q706.52 8.26 706.52 7.76L706.52 7.76Q706.52 6.97 707.00 6.27Q707.48 5.57 708.37 5.21L708.37 5.21Q708.82 5.01 709.33 4.93Q709.84 4.84 710.33 4.84L710.33 4.84Q711.26 4.84 712.14 5.10Q713.02 5.35 713.90 5.74ZM722.19 12.54L722.19 12.54Q722.19 12.17 722.39 11.45Q722.60 10.72 722.92 9.85Q723.24 8.97 723.65 8.04Q724.05 7.11 724.46 6.30Q724.88 5.49 725.26 4.89Q725.63 4.30 725.91 4.10L725.91 4.10Q726.14 4.14 726.40 4.30Q726.66 4.47 726.88 4.67Q727.10 4.87 727.27 5.10Q727.44 5.32 727.47 5.49L727.47 5.49Q726.75 6.08 726.05 6.95Q725.35 7.83 724.76 8.89Q724.16 9.95 723.72 11.16Q723.27 12.38 723.04 13.64L723.04 13.64Q722.88 13.59 722.71 13.53Q722.55 13.47 722.44 13.36Q722.33 13.24 722.26 13.05Q722.19 12.85 722.19 12.54ZM721.88 16.25L721.88 16.25Q721.71 16.25 721.56 16.18Q721.41 16.10 721.29 16.00Q721.17 15.89 721.10 15.77Q721.03 15.65 721.03 15.58L721.03 15.58Q721.03 15.41 721.07 15.15Q721.11 14.88 721.20 14.64Q721.28 14.39 721.41 14.22Q721.53 14.04 721.69 14.04L721.69 14.04Q722.08 14.04 722.48 14.31Q722.88 14.59 723.07 14.92L723.07 14.92Q722.90 15.11 722.78 15.34Q722.65 15.57 722.53 15.77Q722.40 15.97 722.25 16.11Q722.09 16.25 721.88 16.25Z"></path></g></svg>