<svg data-v-fde0c5aa="" xmlns="http://www.w3.org/2000/svg" viewBox="0 0 300 300" class="font"><!----><defs data-v-fde0c5aa=""><!----></defs><rect data-v-fde0c5aa="" fill="#E4F3EB" x="0" y="0" width="300px" height="300px" class="logo-background-square"></rect><defs data-v-fde0c5aa=""><linearGradient data-v-fde0c5aa="" gradientTransform="rotate(25)" id="d6b3cb46-e475-483c-8aaf-59444cf4b924" x1="0%" y1="0%" x2="100%" y2="0%"><stop data-v-fde0c5aa="" offset="0%" stop-color="#085B20" stop-opacity="1"></stop><stop data-v-fde0c5aa="" offset="100%" stop-color="#41E296" stop-opacity="1"></stop></linearGradient></defs><g data-v-fde0c5aa="" id="4d3dd04d-2752-4665-b1bb-6dcd82f2ef46" fill="url(#d6b3cb46-e475-483c-8aaf-59444cf4b924)" transform="matrix(4.79302816310282,0,0,4.79302816310282,38.03485847026905,103.86710621562928)"><path d="M2.60 13.43L2.60 10.30C3.15 10.28 3.64 10.21 4.10 10.09L6.05 13.43L7.46 13.43L5.24 9.66C6.38 9.07 7.03 8.06 7.03 6.75C7.03 5.11 5.87 3.63 2.11 3.63L0.41 3.63L0.41 4.66L1.36 4.66L1.36 13.43ZM5.68 6.79C5.68 8.18 4.65 9.16 2.60 9.28L2.60 4.68C5.07 4.79 5.68 5.73 5.68 6.79ZM11.26 6.61C9.31 6.61 8.15 7.74 8.15 9.95C8.15 12.33 9.56 13.57 11.80 13.57C12.56 13.57 13.38 13.44 14.01 13.19L14.01 12.15C13.23 12.40 12.36 12.52 11.77 12.52C10.36 12.52 9.53 11.84 9.38 10.40L14.13 10.40L14.13 9.83C14.13 7.71 13.09 6.61 11.26 6.61ZM11.24 7.56C12.33 7.56 12.88 8.40 12.88 9.53L9.37 9.53C9.48 8.18 10.21 7.56 11.24 7.56ZM19.84 6.68C19.50 6.64 19.14 6.61 18.72 6.61C16.28 6.61 15.22 7.91 15.22 9.79C15.22 12.25 17.09 13.50 19.46 13.50C19.71 13.50 19.85 13.48 20.10 13.47L20.10 12.46C19.88 12.49 19.68 12.50 19.47 12.50C17.60 12.50 16.51 11.34 16.51 9.74C16.51 8.44 17.22 7.62 18.87 7.62C19.21 7.62 19.49 7.63 19.84 7.69ZM21.34 3.72L21.34 5.10L22.61 5.10L22.61 3.72ZM21.34 6.75L21.34 11.56C21.34 12.85 21.81 13.47 23.16 13.47C23.31 13.47 23.45 13.45 23.60 13.44L23.60 12.43C23.46 12.46 23.37 12.46 23.24 12.46C22.76 12.46 22.61 12.14 22.61 11.54L22.61 6.75ZM26.03 16.37L26.03 13.45C26.50 13.52 26.98 13.57 27.38 13.57C29.65 13.57 30.87 12.24 30.87 9.76C30.87 7.48 29.79 6.61 28.35 6.61C27.26 6.61 26.47 7.11 26.00 8.30L25.97 6.75L24.75 6.75L24.75 16.37ZM28.07 7.66C28.99 7.66 29.60 8.25 29.60 9.83C29.60 11.68 28.78 12.59 27.34 12.59C26.94 12.59 26.50 12.54 26.04 12.45C26.07 8.37 27.10 7.66 28.07 7.66ZM32.34 3.72L32.34 5.10L33.61 5.10L33.61 3.72ZM32.34 6.75L32.34 11.56C32.34 12.85 32.82 13.47 34.16 13.47C34.31 13.47 34.45 13.45 34.61 13.44L34.61 12.43C34.47 12.46 34.37 12.46 34.24 12.46C33.77 12.46 33.61 12.14 33.61 11.54L33.61 6.75ZM39.68 2.88C39.44 2.81 39.14 2.79 38.74 2.79C37.18 2.79 36.25 3.91 36.25 5.99L36.25 6.75L35.01 6.75L35.01 7.71L36.25 7.71L36.25 13.43L37.51 13.43L37.51 7.71L39.42 7.71L39.42 6.75L37.51 6.75L37.51 6.02C37.51 4.45 38.04 3.79 38.96 3.79C39.24 3.79 39.44 3.82 39.68 3.88ZM42.46 15.46C41.72 15.46 40.95 15.37 40.39 15.20L40.39 16.20C40.94 16.37 41.78 16.46 42.50 16.46C44.93 16.46 46.31 15.41 46.31 12.64L46.31 7.42L46.30 7.42L46.30 6.75L45.01 6.75L45.01 8.57C44.91 10.35 44.38 12.50 42.84 12.50C42.10 12.50 41.73 12.08 41.73 11.02L41.73 6.75L40.47 6.75L40.47 11.27C40.47 12.71 41.03 13.55 42.49 13.55C43.78 13.55 44.58 12.94 45.04 11.84L45.04 12.63C45.04 14.80 44.03 15.46 42.46 15.46Z"></path></g><!----><!----></svg>